<?xml version="1.0" encoding="utf-8"?>
<!-- Generator: Adobe Illustrator 27.0.0, SVG Export Plug-In . SVG Version: 6.00 Build 0)  -->
<svg version="1.1" id="Layer_1" xmlns="http://www.w3.org/2000/svg" xmlns:xlink="http://www.w3.org/1999/xlink" x="0px" y="0px"
	 viewBox="0 0 602.2 144" style="enable-background:new 0 0 602.2 144;" xml:space="preserve">
<style type="text/css">
	.st0{fill:#5555FF;}
	.st1{fill:#FFFFFF;}
</style>
<path class="st0" d="M597.2,120H5c-2.8,0-5-0.4-5-1V1c0-0.6,2.3-1,5-1h592.1c2.8,0,5,0.4,5,1v118C602.2,119.6,599.9,120,597.2,120z"
	/>
<g>
	<path class="st1" d="M344.1,45.8H335c-0.6,0-0.9,0.2-0.9,0.8v16.1c0,2.2,0,4.1,0.1,5.7c0,1.6,0.1,2.9,0.1,4s0.1,2.1,0.1,2.8
		c0,0.8,0,1.5,0,2.1h-0.1c-0.6-1.2-1.4-2.9-2.5-5c-1.1-2.2-2.4-4.6-3.9-7.4c-1.5-2.8-3-5.7-4.7-8.8c-1.7-3.1-3.3-6.2-5-9.2
		c-1.7-3-3.2-6-4.8-8.7c-1.5-2.8-2.9-5.2-4-7.3c-0.1-0.2-0.2-0.4-0.4-0.5c-0.1-0.1-0.4-0.1-0.8-0.1h-3.3h-10h-0.1
		c-0.4,0-0.7,0.2-0.7,0.7l0,0c0,0.1,0,0.1,0,0.2v37.2c0,2.9-0.3,5.3-1,7.3c-0.7,1.9-1.6,3.5-2.8,4.7c-1.2,1.2-2.6,2-4.1,2.5
		c-1.6,0.5-3.3,0.8-5.2,0.8c-4.6,0-8-1.4-10.2-4.1c-2.2-2.7-3.3-6.4-3.3-10.9V31c0-0.5-0.2-0.8-0.8-0.8h-10c-0.5,0-0.8,0.3-0.8,0.9
		v38.2c0,4.1,0.6,7.7,1.7,10.7c1.1,3,2.8,5.6,4.9,7.6s4.8,3.5,7.8,4.5s6.4,1.5,10.2,1.5c3.5,0,6.8-0.5,9.8-1.4
		c3.1-0.9,5.7-2.4,7.9-4.4c2.2-2,4-4.6,5.3-7.7c1.3-3.1,2-6.9,2-11.4V44.8c0.5,1.1,1.1,2.4,1.9,3.8c1.3,2.6,2.8,5.5,4.4,8.6
		s3.4,6.4,5.2,9.8s3.6,6.7,5.4,9.9c1.7,3.2,3.3,6.1,4.8,8.7c1.4,2.7,2.6,4.8,3.4,6.4c0.2,0.4,0.7,0.7,1.2,0.7H344c0.6,0,1-0.3,1-0.8
		V46.7C344.9,46.1,344.7,45.8,344.1,45.8z"/>
	<circle class="st1" cx="339.5" cy="32.9" r="6.6"/>
</g>
<g>
	<path class="st0" d="M349.1,142h12v-3.3h-7.6v-4.4h6.8v-3.2h-6.8v-4.3h7.6v-3.3h-12V142z M333.5,138.7v-11.9h2.9
		c3.4,0,5.2,2.4,5.2,6c0,3.6-1.9,6-5.2,6H333.5z M329.2,142h7.2c5.7,0,9.6-3.9,9.6-9.3c0-5.5-4.1-9.3-9.6-9.3h-7.2V142z
		 M316.6,138.7c-3.5,0-5.2-2.4-5.2-5.9c0-3.5,1.7-5.9,5.2-5.9c3.5,0,5.3,2.5,5.2,5.9C321.8,136.2,320.1,138.7,316.6,138.7z
		 M298.7,142.2c2.8,0,5.2-0.9,6.8-3l-1.7-1.8c-0.1-0.1-0.4-0.2-0.6-0.2c-0.1,0-0.2,0-0.4,0.1c-0.2,0.1-0.7,0.6-1.1,0.8
		c-0.9,0.6-1.9,0.6-2.8,0.6c-3.1,0-4.9-2.6-4.9-5.9c0-3.5,2-5.9,5.3-5.9c0.7,0,1.5,0.1,2,0.3c0.4,0.2,1.4,0.8,1.6,0.9
		c0.1,0.1,0.3,0.1,0.4,0.1c0.4,0,0.6-0.1,0.9-0.5l1.5-1.9c-1.6-1.7-4.1-2.5-6.4-2.5c-5.7,0-9.7,3.9-9.7,9.5
		C289.6,138.3,293.2,142.2,298.7,142.2z M282,142h4.3v-18.6H282V142z M260.9,142h4.3v-9.7c0-0.3,0-1.5-0.1-1.8l8.2,10.8
		c0.4,0.6,0.9,0.7,1.5,0.7h2.8v-18.6h-4.3v9.6c0,0.4,0.1,1.6,0.1,2l-8.3-10.9c-0.2-0.2-0.4-0.5-0.6-0.5c-0.2-0.1-0.6-0.1-0.8-0.1
		h-2.8L260.9,142L260.9,142z M249.1,142.2c4.8,0,8-3.1,8-7.8v-11h-4.3v11c0,2.6-1.3,4.1-3.7,4.1c-2.4,0-3.7-1.7-3.7-4.2v-11h-4.3v11
		C241.1,139.2,244.3,142.2,249.1,142.2z M316.6,142.2c5.7,0,9.6-4.1,9.6-9.5c0-5.5-4.1-9.5-9.6-9.5c-5.7,0-9.7,4-9.7,9.5
		C307,138.3,311,142.2,316.6,142.2z"/>
</g>
</svg>
