<?xml version="1.0" encoding="UTF-8"?><svg id="Capa_2" xmlns="http://www.w3.org/2000/svg" viewBox="0 0 3864.62 2598.05"><defs><style>.cls-1{letter-spacing:-.05em;}.cls-1,.cls-2,.cls-3,.cls-4,.cls-5,.cls-6{font-family:Helvetica, Helvetica;}.cls-1,.cls-7,.cls-8,.cls-9,.cls-10,.cls-11,.cls-12,.cls-4,.cls-5,.cls-6{fill:#fff;}.cls-1,.cls-4{font-size:66.45px;}.cls-13{stroke-width:7.65px;}.cls-13,.cls-7,.cls-8,.cls-14,.cls-15,.cls-16,.cls-17,.cls-12,.cls-18{stroke-miterlimit:10;}.cls-13,.cls-15{fill:rgba(31,132,199,.15);stroke:#1f84c7;}.cls-19,.cls-20,.cls-21,.cls-22,.cls-23,.cls-24{fill:#695ae5;}.cls-19,.cls-21,.cls-25,.cls-26,.cls-22,.cls-27,.cls-28,.cls-23{font-family:FiraCode-Medium, 'Fira Code';font-variation-settings:'wght' 500;font-weight:500;}.cls-19,.cls-22,.cls-27{font-size:72px;}.cls-7{stroke-width:7.18px;}.cls-7,.cls-8,.cls-10,.cls-11{stroke:#695ae5;}.cls-29{fill:#1d1d1b;font-size:56px;}.cls-8{stroke-width:9px;}.cls-20,.cls-30{opacity:.3;}.cls-14{stroke-width:2.89px;}.cls-14,.cls-18{fill:rgba(229,37,33,.15);stroke:#e52629;}.cls-9,.cls-10,.cls-11{stroke-linejoin:round;}.cls-9,.cls-10,.cls-12{stroke-width:4px;}.cls-9,.cls-12{stroke:#6057a2;}.cls-31,.cls-22,.cls-23{opacity:.35;}.cls-3,.cls-6{letter-spacing:-.05em;}.cls-21,.cls-26,.cls-28,.cls-23{font-size:37.26px;}.cls-15{stroke-width:3.69px;}.cls-26,.cls-27{fill:#1f84c7;}.cls-16{stroke-dasharray:0 0 9.62 14.43;stroke-width:3.37px;}.cls-16,.cls-17{fill:rgba(255,255,255,.15);stroke:rgba(105,90,229,.3);stroke-linecap:round;}.cls-17{stroke-dasharray:0 0 19.93 29.9;stroke-width:6.98px;}.cls-11{stroke-width:6.99px;}.cls-28{fill:#e52521;}.cls-5,.cls-6{font-size:38px;}.cls-18{stroke-width:3.55px;}</style></defs><g id="Capa_2-2"><g><rect class="cls-8" x="4.5" y="1228.68" width="3855.62" height="1364.87" rx="50" ry="50"/><path class="cls-17" d="M2289.73,2044.74c104.08-60.35,174.09-172.96,174.09-301.94,0-192.63-156.16-348.79-348.79-348.79-62.43,0-121.03,16.4-171.72,45.13"/><path class="cls-17" d="M1943.3,1439.14c-105.73,59.92-177.07,173.46-177.07,303.66,0,.4,.01,.79,.01,1.19,51.37-29.79,111.04-46.85,174.7-46.85,192.24,0,348.13,155.52,348.78,347.6"/><path class="cls-17" d="M1592.16,2045.93c0,192.63,156.16,348.79,348.79,348.79s348.79-156.16,348.79-348.79c0-.4-.01-.79-.01-1.19"/><path class="cls-17" d="M2289.73,2044.74c-51.37,29.79-111.04,46.85-174.7,46.85-192.23,0-348.13-155.52-348.78-347.6-104.08,60.35-174.09,172.96-174.09,301.94"/><path class="cls-13" d="M1766.25,1743.99c51.37-29.79,111.04-46.85,174.7-46.85s122.84,16.92,174.07,46.49c0-.27,.01-.55,.01-.82,0-192.63-156.16-348.79-348.79-348.79s-348.79,156.16-348.79,348.79,156.16,348.79,348.79,348.79c63.53,0,123.1-17,174.4-46.68-103.93-60.12-173.96-172.32-174.39-300.93Z"/><path class="cls-13" d="M2289.73,2044.74c-.43-128.74-70.6-241.04-174.71-301.12-.3,128.75-70.35,241.11-174.38,301.29,51.3,29.68,110.86,46.68,174.39,46.68s123.33-17.06,174.7-46.85Z"/><rect class="cls-7" x="4.5" y="3.59" width="3855.62" height="868.7" rx="50" ry="50"/><rect class="cls-24" x="4.5" y="1037.15" width="3855.62" height="102.39" rx="50" ry="50"/><text class="cls-4" transform="translate(1908.32 1110.04)"><tspan x="0" y="0">U</tspan></text><rect class="cls-24" x="2549.91" y="1397.39" width="223.06" height="102.39" rx="18.89" ry="18.89"/><text class="cls-4" transform="translate(2633.6 1470.28)"><tspan x="0" y="0">B</tspan></text><rect class="cls-24" x="1091.65" y="1469.46" width="223.06" height="102.39" rx="18.89" ry="18.89"/><rect class="cls-24" x="1240.02" y="2321.84" width="223.06" height="102.39" rx="18.89" ry="18.89"/><text class="cls-4" transform="translate(1323.71 2394.72)"><tspan x="0" y="0">c</tspan></text><polyline class="cls-11" points="2549.91 1448.59 2500.19 1448.59 2439.84 1544.14 2400.25 1544.14"/><polyline class="cls-11" points="1463.08 2373.03 1513.71 2373.03 1583.95 2248.83 1649.48 2248.83"/><polyline class="cls-11" points="1314.71 1520.66 1353.5 1520.66 1421.92 1579.95 1456.81 1579.95"/><text class="cls-1" transform="translate(1173.94 1542.35)"><tspan x="0" y="0">A</tspan></text><line class="cls-12" x1="1932.31" y1="41.16" x2="1932.31" y2="820.63"/><text class="cls-29" transform="translate(868.37 756.29)"><tspan class="cls-2" x="0" y="0">B </tspan><tspan class="cls-25" x="52.91" y="0">∩</tspan><tspan class="cls-2" x="86.51" y="0" xml:space="preserve"> C</tspan></text><rect class="cls-24" x="1255.3" y="93.4" width="127.57" height="58.55" rx="10.8" ry="10.8"/><text class="cls-5" transform="translate(1303.17 135.08)"><tspan x="0" y="0">B</tspan></text><rect class="cls-20" x="515.86" y="93.4" width="127.57" height="58.55" rx="10.8" ry="10.8"/><text class="cls-6" transform="translate(563.72 135.08)"><tspan x="0" y="0">A</tspan></text><rect class="cls-24" x="595.57" y="578.56" width="127.57" height="58.55" rx="10.8" ry="10.8"/><text class="cls-5" transform="translate(643.43 620.24)"><tspan x="0" y="0">C</tspan></text><polyline class="cls-10" points="1255.3 122.68 1226.87 122.68 1192.35 177.33 1169.71 177.33"/><polyline class="cls-10" points="723.13 607.84 752.09 607.84 792.26 536.81 829.73 536.81"/><polyline class="cls-10" points="643.43 122.68 665.61 122.68 704.74 156.59 724.7 156.59"/><text class="cls-29" transform="translate(2765.61 756.29)"><tspan class="cls-2" x="0" y="0">(B </tspan><tspan class="cls-25" x="71.56" y="0">∩</tspan><tspan class="cls-2" x="105.16" y="0" xml:space="preserve"> C) Δ</tspan><tspan class="cls-3" x="235.81" y="0" xml:space="preserve"> A</tspan></text><rect class="cls-24" x="3221.2" y="90.94" width="127.57" height="58.55" rx="10.8" ry="10.8"/><text class="cls-5" transform="translate(3269.06 132.62)"><tspan x="0" y="0">B</tspan></text><rect class="cls-24" x="2481.75" y="90.94" width="127.57" height="58.55" rx="10.8" ry="10.8"/><rect class="cls-24" x="2561.46" y="576.09" width="127.57" height="58.55" rx="10.8" ry="10.8"/><text class="cls-5" transform="translate(2609.32 617.77)"><tspan x="0" y="0">C</tspan></text><polyline class="cls-10" points="3221.2 120.21 3192.76 120.21 3158.25 174.86 3135.61 174.86"/><polyline class="cls-10" points="2689.02 605.37 2717.98 605.37 2758.15 534.34 2795.62 534.34"/><polyline class="cls-9" points="2609.32 120.21 2631.5 120.21 2670.63 154.12 2690.59 154.12"/><text class="cls-6" transform="translate(2528.81 132.62)"><tspan x="0" y="0">A</tspan></text><text class="cls-27" transform="translate(1565.94 1663.79)"><tspan x="0" y="0">15</tspan></text><text class="cls-27" transform="translate(1890.11 1609.76)"><tspan x="0" y="0">11</tspan></text><g class="cls-30"><text class="cls-19" transform="translate(2212.29 1663.79)"><tspan x="0" y="0">16</tspan></text></g><text class="cls-27" transform="translate(2137.85 1999.53)"><tspan x="0" y="0">7</tspan></text><g class="cls-30"><text class="cls-19" transform="translate(1911.71 1858.6)"><tspan x="0" y="0">6</tspan></text></g><text class="cls-22" transform="translate(2530.74 2201.24)"><tspan x="0" y="0">19</tspan></text><text class="cls-27" transform="translate(1671.22 1999.53)"><tspan x="0" y="0">21</tspan></text><g class="cls-31"><text class="cls-19" transform="translate(1919.03 2284.39)"><tspan x="0" y="0">9</tspan></text></g><circle class="cls-16" cx="855.45" cy="262.61" r="168.34"/><path class="cls-18" d="M1192.13,262.61c0-92.97-75.37-168.34-168.34-168.34s-168.34,75.37-168.34,168.34c0,.19,0,.38,0,.57,24.79-14.38,53.59-22.61,84.32-22.61,92.78,0,168.02,75.06,168.33,167.76,50.23-29.13,84.02-83.48,84.02-145.73Z"/><path class="cls-18" d="M855.46,263.18c-50.23,29.13-84.02,83.48-84.02,145.73,0,92.97,75.37,168.34,168.34,168.34,92.97,0,168.34-75.37,168.34-168.34,0-.19,0-.38,0-.57-24.79,14.38-53.59,22.61-84.32,22.61-92.78,0-168.02-75.06-168.33-167.76Z"/><path class="cls-15" d="M939.78,240.57c-30.72,0-59.52,8.24-84.32,22.61,.31,92.71,75.55,167.76,168.33,167.76,30.72,0,59.52-8.24,84.32-22.61-.31-92.71-75.55-167.76-168.33-167.76Z"/><path class="cls-16" d="M3159.42,259.27c0-92.97-75.37-168.34-168.34-168.34s-168.34,75.37-168.34,168.34c0,.19,0,.38,0,.57,24.79-14.38,53.59-22.61,84.32-22.61,92.78,0,168.02,75.06,168.33,167.76,50.23-29.13,84.02-83.48,84.02-145.73Z"/><path class="cls-16" d="M2822.75,259.85c-50.23,29.13-84.02,83.48-84.02,145.73,0,92.97,75.37,168.34,168.34,168.34s168.34-75.37,168.34-168.34c0-.19,0-.38,0-.57-24.79,14.38-53.59,22.61-84.32,22.61-92.78,0-168.02-75.06-168.33-167.76Z"/><path class="cls-15" d="M2822.75,259.85c24.79-14.38,53.59-22.61,84.32-22.61s59.29,8.17,84.01,22.44c0-.13,0-.26,0-.4,0-92.97-75.37-168.34-168.34-168.34s-168.34,75.37-168.34,168.34,75.37,168.34,168.34,168.34c30.66,0,59.41-8.2,84.17-22.53-50.16-29.02-83.96-83.17-84.16-145.24Z"/><path class="cls-15" d="M3075.39,405c-.21-62.13-34.08-116.33-84.32-145.33-.14,62.14-33.96,116.37-84.16,145.41,24.76,14.32,53.5,22.53,84.17,22.53s59.52-8.24,84.32-22.61Z"/><path class="cls-14" d="M2991.07,259.67c-24.72-14.27-53.41-22.44-84.01-22.44s-59.52,8.24-84.32,22.61c.21,62.07,34.01,116.22,84.16,145.24,50.21-29.05,84.02-83.27,84.16-145.41Z"/><g class="cls-31"><text class="cls-21" transform="translate(751.81 226.83)"><tspan x="0" y="0">15</tspan></text></g><text class="cls-28" transform="translate(919.56 198.87)"><tspan x="0" y="0">11</tspan></text><text class="cls-28" transform="translate(1086.28 226.83)"><tspan x="0" y="0">16</tspan></text><text class="cls-23" transform="translate(1251.07 504.95)"><tspan x="0" y="0">19</tspan></text><text class="cls-28" transform="translate(934.52 514.39)"><tspan x="0" y="0">9</tspan></text><text class="cls-26" transform="translate(1049.67 392.74)"><tspan x="0" y="0">7</tspan></text><text class="cls-26" transform="translate(930.74 327.64)"><tspan x="0" y="0">6</tspan></text><text class="cls-28" transform="translate(808.2 392.74)"><tspan x="0" y="0">21</tspan></text><text class="cls-26" transform="translate(2712.1 213.84)"><tspan x="0" y="0">15</tspan></text><text class="cls-26" transform="translate(2879.85 185.88)"><tspan x="0" y="0">11</tspan></text><g class="cls-31"><text class="cls-21" transform="translate(3046.57 213.84)"><tspan x="0" y="0">16</tspan></text></g><text class="cls-23" transform="translate(3211.36 491.96)"><tspan x="0" y="0">19</tspan></text><g class="cls-31"><text class="cls-21" transform="translate(2894.82 501.4)"><tspan x="0" y="0">9</tspan></text></g><text class="cls-26" transform="translate(3009.96 379.75)"><tspan x="0" y="0">7</tspan></text><text class="cls-28" transform="translate(2891.03 314.65)"><tspan x="0" y="0">6</tspan></text><text class="cls-26" transform="translate(2768.49 379.75)"><tspan x="0" y="0">21</tspan></text></g></g></svg>