<?xml version="1.0" encoding="UTF-8"?><svg id="Capa_2" xmlns="http://www.w3.org/2000/svg" viewBox="0 0 3864.62 2598.05"><defs><style>.cls-1{letter-spacing:-.05em;}.cls-1,.cls-2,.cls-3,.cls-4,.cls-5{font-family:Helvetica, Helvetica;}.cls-1,.cls-6,.cls-7,.cls-8,.cls-9,.cls-10,.cls-11,.cls-3,.cls-4,.cls-12,.cls-5{fill:#fff;}.cls-1,.cls-3{font-size:66.45px;}.cls-13{fill:rgba(8,160,69,.15);stroke:#08a045;stroke-width:7.68px;}.cls-13,.cls-6,.cls-7,.cls-14,.cls-11,.cls-15,.cls-16,.cls-17,.cls-18{stroke-miterlimit:10;}.cls-19,.cls-20,.cls-21,.cls-22,.cls-23,.cls-24,.cls-25,.cls-26{font-family:FiraCode-Medium, 'Fira Code';font-variation-settings:'wght' 500;font-weight:500;}.cls-19,.cls-20,.cls-24{font-size:72px;}.cls-19,.cls-27,.cls-21,.cls-24,.cls-26,.cls-28{fill:#695ae5;}.cls-6{stroke-width:7.18px;}.cls-6,.cls-7,.cls-9,.cls-10,.cls-12{stroke:#695ae5;}.cls-29{fill:#1d1d1b;font-size:56px;}.cls-7{stroke-width:9px;}.cls-20{fill:#08a045;}.cls-27,.cls-12,.cls-30{opacity:.3;}.cls-31{letter-spacing:0em;}.cls-31,.cls-32{font-family:MyriadPro-Regular, 'Myriad Pro';}.cls-8,.cls-9,.cls-10,.cls-12{stroke-linejoin:round;}.cls-8,.cls-9,.cls-11,.cls-12{stroke-width:4px;}.cls-8,.cls-11{stroke:#6057a2;}.cls-33,.cls-24,.cls-26{opacity:.35;}.cls-21,.cls-23,.cls-25,.cls-26{font-size:37.26px;}.cls-23{fill:#1f84c7;}.cls-14{stroke-dasharray:0 0 9.62 14.43;stroke-width:3.37px;}.cls-14,.cls-18{fill:rgba(255,255,255,.15);stroke:rgba(105,90,229,.3);stroke-linecap:round;}.cls-10{stroke-width:6.99px;}.cls-25{fill:#e52521;}.cls-4,.cls-5{font-size:38px;}.cls-15{fill:rgba(31,132,199,.15);stroke:#1f84c7;stroke-width:3.68px;}.cls-16{fill:rgba(229,37,33,.15);stroke:#e52629;stroke-width:3.55px;}.cls-17{fill:none;stroke:#52a5dc;stroke-width:1px;}.cls-5{letter-spacing:-.05em;}.cls-18{stroke-dasharray:0 0 20.02 30.03;stroke-width:7.01px;}</style></defs><g id="Capa_2-2"><g><rect class="cls-7" x="4.5" y="1228.68" width="3855.62" height="1364.87" rx="50" ry="50"/><path class="cls-18" d="M2118.41,1740.92c-.44,193.05-157.07,349.42-350.23,349.42-63.66,0-123.35-16.99-174.79-46.67,0,.27-.01,.54-.01,.82,0,193.43,156.81,350.24,350.24,350.24s350.24-156.81,350.24-350.24c0-129.77-70.58-243.06-175.45-303.57Z"/><path class="cls-18" d="M2118.42,1389.86c-63.8,0-123.6,17.06-175.12,46.87,104.68,60.56,175.12,173.74,175.12,303.37,0,.27,0,.54-.01,.82-51.44-29.68-111.13-46.67-174.79-46.67s-123.84,17.14-175.42,47.05c.65,192.88,157.19,349.04,350.22,349.04s350.24-156.81,350.24-350.24-156.81-350.24-350.24-350.24Z"/><path class="cls-18" d="M1943.3,1436.73c-51.52-29.8-111.32-46.87-175.12-46.87-193.43,0-350.24,156.81-350.24,350.24,0,129.77,70.58,243.06,175.45,303.57,.3-129.16,70.52-241.89,174.8-302.37,0-.4-.02-.8-.02-1.2,0-129.64,70.44-242.81,175.12-303.37Z"/><path class="cls-13" d="M2118.41,1740.92c0-.27,.01-.54,.01-.82,0-129.64-70.44-242.81-175.12-303.37-104.68,60.56-175.12,173.74-175.12,303.37,0,.4,.01,.8,.02,1.2,51.59-29.91,111.5-47.05,175.42-47.05s123.35,16.99,174.79,46.67Z"/><path class="cls-17" d="M2118.41,1740.92c-51.44-29.68-111.13-46.67-174.79-46.67-193.16,0-349.79,156.37-350.23,349.42,51.44,29.68,111.13,46.67,174.79,46.67,193.16,0,349.79-156.37,350.23-349.42Z"/><rect class="cls-6" x="4.5" y="3.59" width="3855.62" height="868.7" rx="50" ry="50"/><rect class="cls-28" x="4.5" y="1037.15" width="3855.62" height="102.39" rx="50" ry="50"/><text class="cls-3" transform="translate(1908.32 1110.04)"><tspan x="0" y="0">U</tspan></text><rect class="cls-28" x="2549.91" y="1397.39" width="223.06" height="102.39" rx="18.89" ry="18.89"/><text class="cls-3" transform="translate(2633.6 1470.28)"><tspan x="0" y="0">B</tspan></text><rect class="cls-28" x="1091.65" y="1469.46" width="223.06" height="102.39" rx="18.89" ry="18.89"/><rect class="cls-28" x="1240.02" y="2321.84" width="223.06" height="102.39" rx="18.89" ry="18.89"/><text class="cls-3" transform="translate(1323.71 2394.72)"><tspan x="0" y="0">C</tspan></text><polyline class="cls-10" points="2549.91 1448.59 2500.19 1448.59 2439.84 1544.14 2400.25 1544.14"/><polyline class="cls-10" points="1463.08 2373.03 1513.71 2373.03 1583.95 2248.83 1649.48 2248.83"/><polyline class="cls-10" points="1314.71 1520.66 1353.5 1520.66 1421.92 1579.95 1456.81 1579.95"/><text class="cls-1" transform="translate(1173.94 1542.35)"><tspan x="0" y="0">A</tspan></text><line class="cls-11" x1="1932.31" y1="41.16" x2="1932.31" y2="820.63"/><text class="cls-29" transform="translate(881.37 756.29)"><tspan class="cls-32" x="0" y="0">A</tspan><tspan class="cls-2" x="34.27" y="0" xml:space="preserve"> - </tspan><tspan class="cls-31" x="84.04" y="0">C</tspan></text><rect class="cls-28" x="1255.3" y="93.4" width="127.57" height="58.55" rx="10.8" ry="10.8"/><text class="cls-4" transform="translate(1303.17 135.08)"><tspan x="0" y="0">B</tspan></text><rect class="cls-28" x="515.86" y="93.4" width="127.57" height="58.55" rx="10.8" ry="10.8"/><text class="cls-5" transform="translate(563.72 135.08)"><tspan x="0" y="0">A</tspan></text><rect class="cls-27" x="595.57" y="578.56" width="127.57" height="58.55" rx="10.8" ry="10.8"/><text class="cls-4" transform="translate(643.43 620.24)"><tspan x="0" y="0">C</tspan></text><polyline class="cls-9" points="1255.3 122.68 1226.87 122.68 1192.35 177.33 1169.71 177.33"/><polyline class="cls-12" points="723.13 607.84 752.09 607.84 792.26 536.81 829.73 536.81"/><polyline class="cls-9" points="643.43 122.68 665.61 122.68 704.74 156.59 724.7 156.59"/><text class="cls-29" transform="translate(2774.99 756.29)"><tspan class="cls-2" x="0" y="0">(</tspan><tspan class="cls-32" x="18.65" y="0">A</tspan><tspan class="cls-2" x="52.92" y="0" xml:space="preserve"> - C) </tspan><tspan class="cls-22" x="177.33" y="0">∩</tspan><tspan class="cls-2" x="210.93" y="0" xml:space="preserve"> B</tspan></text><rect class="cls-28" x="3221.2" y="90.94" width="127.57" height="58.55" rx="10.8" ry="10.8"/><text class="cls-4" transform="translate(3269.06 132.62)"><tspan x="0" y="0">B</tspan></text><rect class="cls-28" x="2481.75" y="90.94" width="127.57" height="58.55" rx="10.8" ry="10.8"/><rect class="cls-27" x="2561.46" y="576.09" width="127.57" height="58.55" rx="10.8" ry="10.8"/><text class="cls-4" transform="translate(2609.32 617.77)"><tspan x="0" y="0">C</tspan></text><polyline class="cls-9" points="3221.2 120.21 3192.76 120.21 3158.25 174.86 3135.61 174.86"/><polyline class="cls-12" points="2689.02 605.37 2717.98 605.37 2758.15 534.34 2795.62 534.34"/><polyline class="cls-8" points="2609.32 120.21 2631.5 120.21 2670.63 154.12 2690.59 154.12"/><text class="cls-5" transform="translate(2528.81 132.62)"><tspan x="0" y="0">A</tspan></text><g class="cls-33"><text class="cls-19" transform="translate(1565.94 1663.79)"><tspan x="0" y="0">15</tspan></text></g><text class="cls-20" transform="translate(1890.11 1609.76)"><tspan x="0" y="0">11</tspan></text><g class="cls-30"><text class="cls-19" transform="translate(2212.29 1663.79)"><tspan x="0" y="0">16</tspan></text></g><g class="cls-33"><text class="cls-19" transform="translate(2137.85 1963.11)"><tspan x="0" y="0">7</tspan></text></g><g class="cls-30"><text class="cls-19" transform="translate(1911.71 1858.6)"><tspan x="0" y="0">6</tspan></text></g><text class="cls-24" transform="translate(2530.74 2201.24)"><tspan x="0" y="0">19</tspan></text><g class="cls-33"><text class="cls-19" transform="translate(1671.22 1999.52)"><tspan x="0" y="0">21</tspan></text></g><g class="cls-33"><text class="cls-19" transform="translate(1919.03 2284.39)"><tspan x="0" y="0">9</tspan></text></g><path class="cls-16" d="M1023.79,260.41c0,92.97-75.37,168.34-168.34,168.34-30.66,0-59.41-8.2-84.17-22.53h0c0,62.31,33.85,116.7,84.17,145.81,24.76,14.32,53.51,22.53,84.17,22.53,92.97,0,168.34-75.37,168.34-168.34,0-62.31-33.85-116.7-84.17-145.81Z"/><path class="cls-15" d="M855.45,260.41c24.76-14.32,53.51-22.53,84.17-22.53s59.41,8.2,84.17,22.53h0c0-92.97-75.37-168.34-168.34-168.34-30.66,0-59.41,8.2-84.17,22.53-50.31,29.11-84.17,83.5-84.17,145.81s33.85,116.7,84.17,145.81h0c0-62.31,33.85-116.7,84.17-145.81Z"/><path class="cls-16" d="M1023.79,260.41c-24.76-14.32-53.51-22.53-84.17-22.53s-59.41,8.2-84.17,22.53c-50.31,29.11-84.17,83.5-84.17,145.81,24.76,14.32,53.51,22.53,84.17,22.53,92.97,0,168.34-75.37,168.34-168.34Z"/><path class="cls-14" d="M1023.79,92.07c-30.66,0-59.41,8.2-84.17,22.53-50.31,29.11-84.17,83.5-84.17,145.81s33.85,116.7,84.17,145.81c24.76,14.32,53.51,22.53,84.17,22.53,92.97,0,168.34-75.37,168.34-168.34s-75.37-168.34-168.34-168.34Z"/><path class="cls-14" d="M2991.07,258.67c0,92.97-75.37,168.34-168.34,168.34-30.66,0-59.4-8.2-84.16-22.52h0c0,92.98,75.37,168.35,168.34,168.35s168.34-75.37,168.34-168.34c0-62.31-33.86-116.71-84.18-145.82Z"/><path class="cls-16" d="M2991.07,90.32c-30.66,0-59.41,8.2-84.17,22.53,50.32,29.11,84.17,83.51,84.17,145.82h0c-24.76-14.32-53.5-22.52-84.16-22.52s-59.42,8.2-84.18,22.53c0,92.97,75.37,168.33,168.34,168.33s168.34-75.37,168.34-168.34-75.37-168.34-168.34-168.34Z"/><path class="cls-16" d="M2906.9,112.85c-24.76-14.32-53.51-22.53-84.17-22.53-92.97,0-168.34,75.37-168.34,168.34,0,62.31,33.86,116.71,84.18,145.82,0-62.3,33.85-116.7,84.16-145.81,0,0,0,0,0-.01,0-62.31,33.86-116.71,84.17-145.82Z"/><path class="cls-15" d="M2991.07,258.67h0c0-62.31-33.86-116.71-84.17-145.82-50.32,29.11-84.17,83.51-84.17,145.82,0,0,0,0,0,.01,24.76-14.33,53.51-22.53,84.18-22.53s59.4,8.2,84.16,22.52Z"/><path class="cls-14" d="M2991.07,258.67c-24.76-14.32-53.5-22.52-84.16-22.52-92.97,0-168.34,75.37-168.34,168.34,24.76,14.32,53.5,22.52,84.16,22.52,92.97,0,168.34-75.37,168.34-168.34Z"/><text class="cls-23" transform="translate(748.93 219.57)"><tspan x="0" y="0">15</tspan></text><text class="cls-23" transform="translate(916.68 191.61)"><tspan x="0" y="0">11</tspan></text><g class="cls-33"><text class="cls-21" transform="translate(1083.4 219.57)"><tspan x="0" y="0">16</tspan></text></g><text class="cls-26" transform="translate(1248.19 497.69)"><tspan x="0" y="0">19</tspan></text><text class="cls-25" transform="translate(931.65 507.13)"><tspan x="0" y="0">9</tspan></text><text class="cls-25" transform="translate(1046.79 385.48)"><tspan x="0" y="0">7</tspan></text><text class="cls-25" transform="translate(927.86 320.38)"><tspan x="0" y="0">6</tspan></text><text class="cls-25" transform="translate(805.32 385.48)"><tspan x="0" y="0">21</tspan></text><text class="cls-25" transform="translate(2719.09 224.8)"><tspan x="0" y="0">15</tspan></text><text class="cls-23" transform="translate(2886.84 196.84)"><tspan x="0" y="0">11</tspan></text><text class="cls-25" transform="translate(3053.56 224.8)"><tspan x="0" y="0">16</tspan></text><text class="cls-26" transform="translate(3218.35 502.92)"><tspan x="0" y="0">19</tspan></text><g class="cls-33"><text class="cls-21" transform="translate(2901.8 512.36)"><tspan x="0" y="0">9</tspan></text></g><text class="cls-25" transform="translate(3016.95 390.71)"><tspan x="0" y="0">7</tspan></text><text class="cls-25" transform="translate(2898.02 325.61)"><tspan x="0" y="0">6</tspan></text><g class="cls-33"><text class="cls-21" transform="translate(2775.48 390.71)"><tspan x="0" y="0">21</tspan></text></g></g></g></svg>