<?xml version="1.0" encoding="UTF-8"?><svg id="Capa_2" xmlns="http://www.w3.org/2000/svg" viewBox="0 0 3864.62 2822.89"><defs><style>.cls-1{letter-spacing:-.05em;}.cls-1,.cls-2,.cls-3,.cls-4,.cls-5,.cls-6{font-family:Helvetica, Helvetica;}.cls-1,.cls-7,.cls-8,.cls-9,.cls-4,.cls-5,.cls-10,.cls-6,.cls-11{fill:#fff;}.cls-1,.cls-4{font-size:66.45px;}.cls-12{stroke-width:6.99px;}.cls-12,.cls-7,.cls-13,.cls-8,.cls-14,.cls-11{stroke:#695ae5;}.cls-12,.cls-8,.cls-14,.cls-10{stroke-linejoin:round;}.cls-12,.cls-14{fill:none;}.cls-15{font-size:72px;}.cls-15,.cls-16,.cls-17,.cls-18,.cls-19{fill:#695ae5;}.cls-15,.cls-17,.cls-20,.cls-21,.cls-18{font-family:FiraCode-Medium, 'Fira Code';font-variation-settings:'wght' 500;font-weight:500;}.cls-22,.cls-23,.cls-3{fill:#1d1d1b;font-size:56px;}.cls-7{stroke-width:9px;}.cls-7,.cls-13,.cls-24,.cls-25,.cls-26,.cls-9,.cls-27,.cls-28,.cls-29,.cls-11{stroke-miterlimit:10;}.cls-16,.cls-10,.cls-30{opacity:.3;}.cls-31{letter-spacing:-.01em;}.cls-32{letter-spacing:-.06em;}.cls-33,.cls-18{opacity:.35;}.cls-13{fill:rgba(105,90,229,.15);stroke-width:7.64px;}.cls-8,.cls-14,.cls-9,.cls-10{stroke-width:4px;}.cls-17,.cls-20,.cls-21,.cls-18{font-size:37.26px;}.cls-24{stroke-width:3.69px;}.cls-24,.cls-28{fill:rgba(31,132,199,.15);stroke:#1f84c7;}.cls-23,.cls-34{font-family:MyriadPro-Regular, 'Myriad Pro';}.cls-20{fill:#1f84c7;}.cls-25{stroke-dasharray:0 0 9.62 14.43;stroke-width:3.37px;}.cls-25,.cls-26{fill:rgba(255,255,255,.15);stroke:rgba(105,90,229,.3);stroke-linecap:round;}.cls-26{stroke-dasharray:0 0 19.96 29.95;stroke-width:6.99px;}.cls-21{fill:#e52521;}.cls-9,.cls-10{stroke:#6057a2;}.cls-27{stroke-width:3.54px;}.cls-27,.cls-29{fill:rgba(229,37,33,.15);stroke:#e52629;}.cls-5,.cls-6{font-size:38px;}.cls-28{stroke-width:3.68px;}.cls-29{stroke-width:3.55px;}.cls-6{letter-spacing:-.05em;}.cls-11{stroke-width:8.05px;}</style></defs><g id="Capa_2-2"><g><rect class="cls-7" x="4.5" y="1453.52" width="3855.62" height="1364.87" rx="50" ry="50"/><g><path class="cls-13" d="M3810.12,1453.52H54.5c-27.61,0-50,22.38-50,50v1264.87c0,27.61,22.39,50,50,50H3810.12c27.62,0,50-22.39,50-50V1503.52c0-27.62-22.38-50-50-50Zm-1524.76,814.66c0,.39,.01,.79,.01,1.19,0,192.45-156.01,348.46-348.46,348.46s-348.47-156.01-348.47-348.46c0-.28,.01-.55,.01-.82-104.33-60.2-174.56-172.91-174.56-302.03,0-192.45,156.02-348.46,348.47-348.46,63.47,0,122.97,16.98,174.23,46.63,51.26-29.65,110.76-46.63,174.23-46.63,192.45,0,348.47,156.01,348.47,348.46,0,128.85-69.95,241.36-173.93,301.66Z"/><path class="cls-13" d="M2110.82,1618.06c-63.47,0-122.98,16.98-174.23,46.63,104.15,60.25,174.23,172.86,174.23,301.83,0,.27,0,.54,0,.81,104.01,60.02,174.12,172.22,174.55,300.84,103.98-60.3,173.93-172.8,173.93-301.65,0-192.45-156.01-348.46-348.46-348.46Z"/><path class="cls-13" d="M2110.81,1967.33c-.3,128.64-70.29,240.9-174.22,301.02,51.26,29.65,110.76,46.63,174.23,46.63s123.21-17.05,174.54-46.81c-.43-128.62-70.53-240.82-174.55-300.84Z"/><path class="cls-26" d="M1936.59,2268.35c-103.83-60.07-173.79-172.17-174.22-300.65-103.77,60.17-173.62,172.33-173.92,300.84,51.18,29.53,110.57,46.44,173.9,46.44s122.98-16.98,174.23-46.63Z"/><path class="cls-26" d="M1762.37,1967.71c.43,128.48,70.38,240.58,174.22,300.65,103.93-60.12,173.93-172.38,174.22-301.02-51.18-29.53-110.57-46.43-173.9-46.43s-123.21,17.05-174.53,46.81Z"/></g><rect class="cls-11" x="4.5" y="4.03" width="3855.62" height="1093.1" rx="56.09" ry="56.09"/><rect class="cls-19" x="4.5" y="1261.99" width="3855.62" height="102.39" rx="50" ry="50"/><text class="cls-4" transform="translate(1908.32 1334.87)"><tspan x="0" y="0">U</tspan></text><rect class="cls-19" x="2549.91" y="1622.23" width="223.06" height="102.39" rx="18.89" ry="18.89"/><text class="cls-4" transform="translate(2633.6 1695.11)"><tspan x="0" y="0">C</tspan></text><rect class="cls-19" x="1091.65" y="1694.3" width="223.06" height="102.39" rx="18.89" ry="18.89"/><rect class="cls-19" x="1240.02" y="2546.68" width="223.06" height="102.39" rx="18.89" ry="18.89"/><text class="cls-4" transform="translate(1323.71 2619.56)"><tspan x="0" y="0">B</tspan></text><polyline class="cls-12" points="2549.91 1673.42 2500.19 1673.42 2439.84 1768.98 2400.25 1768.98"/><polyline class="cls-12" points="1463.08 2597.87 1513.71 2597.87 1583.95 2473.67 1649.48 2473.67"/><polyline class="cls-12" points="1314.71 1745.49 1353.5 1745.49 1421.92 1804.79 1456.81 1804.79"/><text class="cls-1" transform="translate(1173.94 1767.18)"><tspan x="0" y="0">A</tspan></text><g class="cls-33"><text class="cls-15" transform="translate(1565.94 1888.63)"><tspan x="0" y="0">15</tspan></text></g><g class="cls-33"><text class="cls-15" transform="translate(1890.11 1834.6)"><tspan x="0" y="0">11</tspan></text></g><text class="cls-15" transform="translate(2212.29 1888.63)"><tspan x="0" y="0">16</tspan></text><text class="cls-15" transform="translate(2137.85 2187.95)"><tspan x="0" y="0">7</tspan></text><g class="cls-30"><text class="cls-15" transform="translate(1911.71 2083.44)"><tspan x="0" y="0">6</tspan></text></g><text class="cls-15" transform="translate(2530.74 2426.08)"><tspan x="0" y="0">19</tspan></text><g class="cls-33"><text class="cls-15" transform="translate(1671.22 2224.36)"><tspan x="0" y="0">21</tspan></text></g><g class="cls-33"><text class="cls-15" transform="translate(1919.03 2509.23)"><tspan x="0" y="0">9</tspan></text></g><line class="cls-9" x1="1230.69" y1="83.9" x2="1230.69" y2="1019.49"/><line class="cls-9" x1="2633.93" y1="83.9" x2="2633.93" y2="1019.49"/><path class="cls-28" d="M888.36,183.41H156.34c-18.31,0-33.15,14.84-33.15,33.15V876.52c0,18.31,14.84,33.15,33.15,33.15H888.36c18.31,0,33.15-14.84,33.15-33.15V216.55c0-18.31-14.84-33.15-33.15-33.15Zm-197.94,435.53c0,.19,0,.38,0,.57,0,92.74-75.18,167.92-167.92,167.92s-167.92-75.18-167.92-167.92c0-.13,0-.26,0-.39-50.28-29.01-84.12-83.32-84.12-145.54,0-92.74,75.18-167.92,167.92-167.92,30.59,0,59.26,8.18,83.96,22.47,24.7-14.29,53.37-22.47,83.96-22.47,92.74,0,167.92,75.18,167.92,167.92,0,62.09-33.7,116.31-83.81,145.36Z"/><path class="cls-28" d="M606.31,305.65c-30.59,0-59.26,8.18-83.96,22.47,50.19,29.03,83.96,83.3,83.96,145.45,0,.13,0,.26,0,.39,50.12,28.92,83.9,82.99,84.11,144.97,50.11-29.06,83.81-83.27,83.81-145.36,0-92.74-75.18-167.92-167.92-167.92Z"/><path class="cls-28" d="M522.35,619.02c-24.7,14.29-53.37,22.47-83.96,22.47s-59.14-8.15-83.8-22.38c0,.13,0,.26,0,.39,0,92.74,75.18,167.92,167.92,167.92s167.92-75.18,167.92-167.92c0-.19,0-.38,0-.57-24.73,14.34-53.46,22.56-84.11,22.56s-59.26-8.18-83.96-22.47Z"/><path class="cls-28" d="M606.31,473.96c-.14,61.99-33.87,116.08-83.95,145.06,24.7,14.29,53.37,22.47,83.96,22.47s59.37-8.22,84.11-22.56c-.21-61.98-33.99-116.05-84.11-144.97Z"/><path class="cls-27" d="M438.4,474.14c0-.19,0-.38,0-.57,0-62.15,33.77-116.41,83.96-145.45-24.7-14.29-53.37-22.47-83.96-22.47-92.74,0-167.92,75.18-167.92,167.92,0,62.22,33.84,116.53,84.12,145.54,.14-61.93,33.81-115.98,83.81-144.97Z"/><path class="cls-27" d="M438.39,473.57c0,.19,0,.38,0,.57,24.73-14.34,53.46-22.56,84.11-22.56s59.14,8.14,83.8,22.38c0-.13,0-.26,0-.39,0-62.15-33.77-116.41-83.96-145.45-50.19,29.03-83.96,83.3-83.96,145.45Z"/><path class="cls-27" d="M522.35,619.02c-50.04-28.95-83.75-82.96-83.95-144.88-50,28.99-83.67,83.04-83.81,144.97,24.66,14.23,53.28,22.38,83.8,22.38s59.26-8.18,83.96-22.47Z"/><path class="cls-27" d="M438.4,474.14c.21,61.91,33.92,115.93,83.95,144.88,50.08-28.97,83.81-83.07,83.95-145.06-24.66-14.23-53.28-22.38-83.8-22.38s-59.37,8.22-84.11,22.56Z"/><text class="cls-22" transform="translate(492.87 978.99)"><tspan class="cls-34" x="0" y="0">A</tspan><tspan class="cls-2" x="34.27" y="0">`</tspan></text><rect class="cls-19" x="835.01" y="292.26" width="127.57" height="58.55" rx="10.8" ry="10.8"/><text class="cls-5" transform="translate(882.87 333.94)"><tspan x="0" y="0">B</tspan></text><rect class="cls-19" x="123.2" y="95.04" width="798.3" height="58.55" rx="13.02" ry="13.02"/><text class="cls-5" transform="translate(508.63 136.72)"><tspan x="0" y="0">U</tspan></text><rect class="cls-19" x="2926.66" y="95.04" width="798.3" height="58.55" rx="13.02" ry="13.02"/><text class="cls-5" transform="translate(3312.09 136.72)"><tspan x="0" y="0">U</tspan></text><rect class="cls-19" x="95.56" y="292.26" width="127.57" height="58.55" rx="10.8" ry="10.8"/><text class="cls-6" transform="translate(143.43 333.94)"><tspan x="0" y="0">A</tspan></text><rect class="cls-19" x="175.27" y="777.41" width="127.57" height="58.55" rx="10.8" ry="10.8"/><text class="cls-5" transform="translate(223.13 819.1)"><tspan x="0" y="0">C</tspan></text><polyline class="cls-14" points="835.01 321.53 806.57 321.53 772.06 376.18 743.12 376.18"/><polyline class="cls-14" points="302.83 806.69 331.79 806.69 371.96 735.66 401.24 735.66"/><polyline class="cls-14" points="223.13 321.53 245.31 321.53 284.44 355.44 319.05 355.44"/><path class="cls-28" d="M3694.2,183.41h-732.01c-18.31,0-33.15,14.84-33.15,33.15V876.52c0,18.31,14.84,33.15,33.15,33.15h732.01c18.31,0,33.15-14.84,33.15-33.15V216.55c0-18.31-14.84-33.15-33.15-33.15Zm-197.94,435.53c0,.19,0,.38,0,.57,0,92.74-75.18,167.92-167.92,167.92s-167.92-75.18-167.92-167.92c0-.13,0-.26,0-.39-50.28-29.01-84.12-83.32-84.12-145.54,0-92.74,75.18-167.92,167.92-167.92,30.59,0,59.26,8.18,83.96,22.47,24.7-14.29,53.37-22.47,83.96-22.47,92.74,0,167.92,75.18,167.92,167.92,0,62.09-33.7,116.31-83.81,145.36Z"/><path class="cls-28" d="M3412.15,305.65c-30.59,0-59.26,8.18-83.96,22.47,50.19,29.03,83.96,83.3,83.96,145.45,0,.13,0,.26,0,.39,50.12,28.92,83.9,82.99,84.11,144.97,50.11-29.06,83.81-83.27,83.81-145.36,0-92.74-75.18-167.92-167.92-167.92Z"/><path class="cls-28" d="M3412.14,473.96c-.14,61.99-33.87,116.08-83.95,145.06,24.7,14.29,53.37,22.47,83.96,22.47s59.37-8.22,84.11-22.56c-.21-61.98-33.99-116.05-84.11-144.97Z"/><path class="cls-25" d="M3328.19,619.02c-24.7,14.29-53.37,22.47-83.96,22.47s-59.14-8.15-83.8-22.38"/><path class="cls-25" d="M3244.24,474.14c.21,61.91,33.92,115.93,83.95,144.88,50.08-28.97,83.81-83.07,83.95-145.06-24.66-14.23-53.28-22.38-83.8-22.38s-59.37,8.22-84.11,22.56Z"/><path class="cls-25" d="M3326.01,327.67c-24.52,14.47-45.69,35.38-60.71,61.95-15.08,26.68-22.06,55.73-21.74,84.32"/><text class="cls-23" transform="translate(3217.15 991.93)"><tspan class="cls-32" x="0" y="0">A</tspan><tspan x="30.97" y="0">&apos; - </tspan><tspan class="cls-31" x="82.43" y="0">(</tspan><tspan x="97.66" y="0">C - B)</tspan></text><rect class="cls-19" x="3641.49" y="292.26" width="127.57" height="58.55" rx="10.8" ry="10.8"/><text class="cls-5" transform="translate(3689.36 333.94)"><tspan x="0" y="0">B</tspan></text><rect class="cls-19" x="2902.05" y="292.26" width="127.57" height="58.55" rx="10.8" ry="10.8"/><text class="cls-6" transform="translate(2949.91 333.94)"><tspan x="0" y="0">A</tspan></text><rect class="cls-19" x="2981.75" y="777.41" width="127.57" height="58.55" rx="10.8" ry="10.8"/><text class="cls-5" transform="translate(3029.62 819.1)"><tspan x="0" y="0">C</tspan></text><polyline class="cls-14" points="3641.49 321.53 3613.06 321.53 3578.54 376.18 3549.6 376.18"/><polyline class="cls-14" points="3109.32 806.69 3138.28 806.69 3178.45 735.66 3207.73 735.66"/><polyline class="cls-14" points="3029.62 321.53 3051.8 321.53 3090.93 355.44 3125.54 355.44"/><text class="cls-3" transform="translate(1860.18 978.99)"><tspan x="0" y="0">C - B</tspan></text><rect class="cls-19" x="2238.25" y="289.79" width="127.57" height="58.55" rx="10.8" ry="10.8"/><text class="cls-5" transform="translate(2286.11 331.47)"><tspan x="0" y="0">B</tspan></text><rect class="cls-16" x="1498.81" y="289.79" width="127.57" height="58.55" rx="10.8" ry="10.8"/><rect class="cls-19" x="1578.51" y="774.95" width="127.57" height="58.55" rx="10.8" ry="10.8"/><text class="cls-5" transform="translate(1626.37 816.63)"><tspan x="0" y="0">C</tspan></text><polyline class="cls-8" points="2238.25 319.07 2209.82 319.07 2175.3 373.72 2152.66 373.72"/><polyline class="cls-8" points="1706.08 804.22 1735.03 804.22 1775.21 733.19 1812.68 733.19"/><polyline class="cls-10" points="1626.37 319.07 1648.55 319.07 1687.68 352.98 1707.64 352.98"/><text class="cls-6" transform="translate(1545.86 331.47)"><tspan x="0" y="0">A</tspan></text><path class="cls-29" d="M2176.63,458.13c0-92.97-75.37-168.34-168.34-168.34s-168.34,75.37-168.34,168.34c0,.19,0,.38,0,.57,24.79-14.38,53.59-22.61,84.32-22.61,92.78,0,168.02,75.06,168.33,167.76,50.23-29.13,84.02-83.48,84.02-145.73Z"/><path class="cls-24" d="M1839.96,458.7c-50.23,29.13-84.02,83.48-84.02,145.73,0,92.97,75.37,168.34,168.34,168.34s168.34-75.37,168.34-168.34c0-.19,0-.38,0-.57-24.79,14.38-53.59,22.61-84.32,22.61-92.78,0-168.02-75.06-168.33-167.76Z"/><path class="cls-29" d="M1924.27,436.09c-30.72,0-59.52,8.24-84.32,22.61,.31,92.71,75.55,167.76,168.33,167.76,30.72,0,59.52-8.24,84.32-22.61-.31-92.71-75.55-167.76-168.33-167.76Z"/><circle class="cls-25" cx="1839.95" cy="458.13" r="168.34"/><path class="cls-26" d="M1762.44,1959.28c2.46-126.22,71.66-236.08,173.76-295.77"/><path class="cls-27" d="M3496.26,618.93c-24.73,14.34-53.46,22.56-84.11,22.56s-59.26-8.18-83.96-22.47c-50.04-28.95-83.75-82.96-83.95-144.88-50,28.99-83.67,83.04-83.81,144.97,0,.13,0,.26,0,.39,0,92.74,75.18,167.92,167.92,167.92s167.92-75.18,167.92-167.92c0-.19,0-.38,0-.57Z"/><text class="cls-21" transform="translate(333.32 439.73)"><tspan x="0" y="0">15</tspan></text><text class="cls-21" transform="translate(501.07 411.77)"><tspan x="0" y="0">11</tspan></text><text class="cls-20" transform="translate(667.79 439.73)"><tspan x="0" y="0">16</tspan></text><text class="cls-20" transform="translate(832.58 717.85)"><tspan x="0" y="0">19</tspan></text><text class="cls-20" transform="translate(516.04 727.29)"><tspan x="0" y="0">9</tspan></text><text class="cls-20" transform="translate(631.18 605.64)"><tspan x="0" y="0">7</tspan></text><text class="cls-21" transform="translate(512.25 540.54)"><tspan x="0" y="0">6</tspan></text><text class="cls-21" transform="translate(389.71 605.64)"><tspan x="0" y="0">21</tspan></text><g class="cls-33"><text class="cls-17" transform="translate(1736.3 430.28)"><tspan x="0" y="0">15</tspan></text></g><text class="cls-21" transform="translate(1904.05 402.32)"><tspan x="0" y="0">11</tspan></text><text class="cls-21" transform="translate(2070.77 430.28)"><tspan x="0" y="0">16</tspan></text><text class="cls-18" transform="translate(2235.56 708.4)"><tspan x="0" y="0">19</tspan></text><text class="cls-20" transform="translate(1919.02 717.85)"><tspan x="0" y="0">9</tspan></text><text class="cls-21" transform="translate(2034.16 596.19)"><tspan x="0" y="0">7</tspan></text><text class="cls-21" transform="translate(1915.23 531.09)"><tspan x="0" y="0">6</tspan></text><text class="cls-20" transform="translate(1792.69 596.19)"><tspan x="0" y="0">21</tspan></text></g></g></svg>