<?xml version="1.0" encoding="UTF-8"?><svg id="Capa_2" xmlns="http://www.w3.org/2000/svg" viewBox="0 0 3864.62 2598.05"><defs><style>.cls-1{letter-spacing:-.05em;}.cls-1,.cls-2,.cls-3,.cls-4,.cls-5,.cls-6,.cls-7,.cls-8,.cls-9,.cls-10,.cls-11,.cls-12{fill:#fff;}.cls-1,.cls-13,.cls-9,.cls-10,.cls-12{font-family:Helvetica, Helvetica;}.cls-1,.cls-9{font-size:66.45px;}.cls-2,.cls-3,.cls-4,.cls-6,.cls-7,.cls-11{stroke:#695ae5;}.cls-2,.cls-5,.cls-6,.cls-7,.cls-11{stroke-linejoin:round;}.cls-2,.cls-5,.cls-6,.cls-8,.cls-11{stroke-width:4px;}.cls-2,.cls-14{opacity:.3;}.cls-15,.cls-16,.cls-17,.cls-18,.cls-19,.cls-20,.cls-14{fill:#695ae5;}.cls-15,.cls-17,.cls-21,.cls-22,.cls-18,.cls-23,.cls-19{font-family:FiraCode-Medium, 'Fira Code';font-variation-settings:'wght' 500;font-weight:500;}.cls-15,.cls-21,.cls-18{font-size:72px;}.cls-24{stroke-width:7.5px;}.cls-24,.cls-3,.cls-4,.cls-25,.cls-26,.cls-27,.cls-8,.cls-28,.cls-29{stroke-miterlimit:10;}.cls-24,.cls-27{fill:rgba(255,255,255,.15);stroke:rgba(105,90,229,.3);stroke-dasharray:0 0 9.62 14.43;stroke-linecap:round;}.cls-3{stroke-width:7.18px;}.cls-30{fill:#1d1d1b;font-size:56px;}.cls-4{stroke-width:9px;}.cls-16,.cls-11{opacity:.3;}.cls-31{letter-spacing:0em;}.cls-31,.cls-32{font-family:MyriadPro-Regular, 'Myriad Pro';}.cls-5,.cls-8{stroke:#6057a2;}.cls-33,.cls-18,.cls-19{opacity:.35;}.cls-17,.cls-22,.cls-23,.cls-19{font-size:37.26px;}.cls-25{fill:rgba(31,132,199,.15);stroke:#1f84c7;stroke-width:3.69px;}.cls-21{fill:#ff8700;}.cls-22{fill:#1f84c7;}.cls-26{fill:none;stroke:#52a5dc;stroke-width:.48px;}.cls-27{stroke-width:3.37px;}.cls-7{stroke-width:6.99px;}.cls-23{fill:#e52521;}.cls-10,.cls-12{font-size:38px;}.cls-28{fill:rgba(255,135,0,.15);stroke:#ff8700;stroke-width:7.62px;}.cls-29{fill:rgba(229,37,33,.15);stroke:#e52629;stroke-width:3.55px;}.cls-12{letter-spacing:-.05em;}</style></defs><g id="Capa_2-2"><g><rect class="cls-3" x="4.5" y="3.59" width="3855.62" height="868.7" rx="50" ry="50"/><rect class="cls-4" x="4.5" y="1228.68" width="3855.62" height="1364.87" rx="50" ry="50"/><rect class="cls-20" x="4.5" y="1037.15" width="3855.62" height="102.39" rx="50" ry="50"/><text class="cls-9" transform="translate(1908.32 1110.04)"><tspan x="0" y="0">U</tspan></text><rect class="cls-20" x="2549.91" y="1397.39" width="223.06" height="102.39" rx="18.89" ry="18.89"/><text class="cls-9" transform="translate(2633.6 1470.28)"><tspan x="0" y="0">B</tspan></text><rect class="cls-20" x="1091.65" y="1469.46" width="223.06" height="102.39" rx="18.89" ry="18.89"/><rect class="cls-20" x="1240.02" y="2321.84" width="223.06" height="102.39" rx="18.89" ry="18.89"/><text class="cls-9" transform="translate(1323.71 2394.72)"><tspan x="0" y="0">C</tspan></text><polyline class="cls-7" points="2549.91 1448.59 2500.19 1448.59 2439.84 1544.14 2400.25 1544.14"/><polyline class="cls-7" points="1463.08 2373.03 1513.71 2373.03 1583.95 2248.83 1649.48 2248.83"/><polyline class="cls-7" points="1314.71 1520.66 1353.5 1520.66 1421.92 1579.95 1456.81 1579.95"/><text class="cls-1" transform="translate(1173.94 1542.35)"><tspan x="0" y="0">A</tspan></text><line class="cls-8" x1="1932.31" y1="41.16" x2="1932.31" y2="820.63"/><text class="cls-30" transform="translate(881.37 756.29)"><tspan class="cls-32" x="0" y="0">A</tspan><tspan class="cls-13" x="34.27" y="0" xml:space="preserve"> - </tspan><tspan class="cls-31" x="84.04" y="0">C</tspan></text><rect class="cls-20" x="1255.3" y="93.4" width="127.57" height="58.55" rx="10.8" ry="10.8"/><text class="cls-10" transform="translate(1303.17 135.08)"><tspan x="0" y="0">B</tspan></text><rect class="cls-20" x="515.86" y="93.4" width="127.57" height="58.55" rx="10.8" ry="10.8"/><text class="cls-12" transform="translate(563.72 135.08)"><tspan x="0" y="0">A</tspan></text><rect class="cls-14" x="595.57" y="578.56" width="127.57" height="58.55" rx="10.8" ry="10.8"/><text class="cls-10" transform="translate(643.43 620.24)"><tspan x="0" y="0">C</tspan></text><polyline class="cls-6" points="1255.3 122.68 1226.87 122.68 1192.35 177.33 1169.71 177.33"/><polyline class="cls-2" points="723.13 607.84 752.09 607.84 792.26 536.81 829.73 536.81"/><polyline class="cls-6" points="643.43 122.68 665.61 122.68 704.74 156.59 724.7 156.59"/><circle class="cls-27" cx="1023.64" cy="262.61" r="168.34"/><path class="cls-29" d="M1023.63,263c-.21,92.79-75.49,167.94-168.33,167.94-30.6,0-59.29-8.17-84.01-22.43,0,.13,0,.26,0,.39,0,92.97,75.37,168.34,168.34,168.34s168.34-75.37,168.34-168.34c0-62.37-33.92-116.82-84.33-145.91Z"/><path class="cls-25" d="M939.62,240.57c30.6,0,59.29,8.17,84.01,22.43,0-.13,0-.26,0-.39,0-92.97-75.37-168.34-168.34-168.34s-168.34,75.37-168.34,168.34c0,62.37,33.92,116.82,84.33,145.91,.21-92.79,75.49-167.94,168.33-167.94Z"/><path class="cls-29" d="M1023.63,263c-24.72-14.27-53.41-22.43-84.01-22.43-92.84,0-168.12,75.16-168.33,167.94,24.72,14.27,53.41,22.43,84.01,22.43,92.84,0,168.12-75.16,168.33-167.94Z"/><text class="cls-30" transform="translate(2775.55 756.29)"><tspan class="cls-13" x="0" y="0">B U (</tspan><tspan class="cls-32" x="127.56" y="0">A</tspan><tspan class="cls-13" x="161.83" y="0" xml:space="preserve"> - </tspan><tspan class="cls-31" x="211.6" y="0">C</tspan><tspan class="cls-13" x="244.08" y="0">)</tspan></text><rect class="cls-20" x="3221.2" y="90.94" width="127.57" height="58.55" rx="10.8" ry="10.8"/><text class="cls-10" transform="translate(3269.06 132.62)"><tspan x="0" y="0">B</tspan></text><rect class="cls-20" x="2481.75" y="90.94" width="127.57" height="58.55" rx="10.8" ry="10.8"/><rect class="cls-16" x="2561.46" y="576.09" width="127.57" height="58.55" rx="10.8" ry="10.8"/><text class="cls-10" transform="translate(2609.32 617.77)"><tspan x="0" y="0">C</tspan></text><polyline class="cls-6" points="3221.2 120.21 3192.76 120.21 3158.25 174.86 3135.61 174.86"/><polyline class="cls-11" points="2689.02 605.37 2717.98 605.37 2758.15 534.34 2795.62 534.34"/><path class="cls-24" d="M2289.2,2044.7c0-126.94-67.75-238.04-169.06-299.15"/><path class="cls-24" d="M1947.05,2045.04c100.77-61.23,168.08-172.03,168.08-298.56"/><polyline class="cls-5" points="2609.32 120.21 2631.5 120.21 2670.63 154.12 2690.59 154.12"/><text class="cls-12" transform="translate(2528.81 132.62)"><tspan x="0" y="0">A</tspan></text><circle class="cls-25" cx="2990.93" cy="259.27" r="168.34"/><path class="cls-27" d="M2990.92,259.67c-.21,92.79-75.49,167.94-168.33,167.94-30.6,0-59.29-8.17-84.01-22.43,0,.13,0,.26,0,.39,0,92.97,75.37,168.34,168.34,168.34s168.34-75.37,168.34-168.34c0-62.37-33.92-116.82-84.33-145.91Z"/><path class="cls-25" d="M2906.91,237.24c30.6,0,59.29,8.17,84.01,22.43,0-.13,0-.26,0-.39,0-92.97-75.37-168.34-168.34-168.34s-168.34,75.37-168.34,168.34c0,62.37,33.92,116.82,84.33,145.91,.21-92.79,75.49-167.94,168.33-167.94Z"/><path class="cls-26" d="M2990.92,259.67c-24.72-14.27-53.41-22.43-84.01-22.43-92.84,0-168.12,75.16-168.33,167.94,24.72,14.27,53.41,22.43,84.01,22.43,92.84,0,168.12-75.16,168.33-167.94Z"/><circle class="cls-28" cx="2114.6" cy="1742.58" r="348.57"/><path class="cls-24" d="M1592.06,2045.52c0,192.51,156.06,348.57,348.57,348.57s348.57-156.06,348.57-348.57"/><path class="cls-28" d="M1940.63,1696.95c63.36,0,122.76,16.91,173.96,46.45,0-.27,0-.54,0-.81,0-192.51-156.06-348.57-348.57-348.57s-348.57,156.06-348.57,348.57c0,129.15,70.25,241.9,174.61,302.12,.44-192.13,156.32-347.76,348.56-347.76Z"/><text class="cls-21" transform="translate(1565.94 1663.79)"><tspan x="0" y="0">15</tspan></text><text class="cls-21" transform="translate(1890.11 1609.76)"><tspan x="0" y="0">11</tspan></text><text class="cls-21" transform="translate(2212.29 1663.79)"><tspan x="0" y="0">16</tspan></text><text class="cls-21" transform="translate(2137.85 1999.52)"><tspan x="0" y="0">7</tspan></text><text class="cls-21" transform="translate(1911.71 1858.6)"><tspan x="0" y="0">6</tspan></text><text class="cls-18" transform="translate(2530.74 2201.24)"><tspan x="0" y="0">19</tspan></text><g class="cls-33"><text class="cls-15" transform="translate(1671.22 1999.52)"><tspan x="0" y="0">21</tspan></text></g><g class="cls-33"><text class="cls-15" transform="translate(1919.03 2284.39)"><tspan x="0" y="0">9</tspan></text></g><path class="cls-24" d="M1592.06,2045.22c50.63,29.21,109.38,45.93,172.03,45.93s122.09-16.91,172.92-46.45"/><text class="cls-22" transform="translate(751.65 226.87)"><tspan x="0" y="0">15</tspan></text><text class="cls-22" transform="translate(919.4 198.91)"><tspan x="0" y="0">11</tspan></text><g class="cls-33"><text class="cls-17" transform="translate(1086.12 226.87)"><tspan x="0" y="0">16</tspan></text></g><text class="cls-19" transform="translate(1250.91 504.99)"><tspan x="0" y="0">19</tspan></text><text class="cls-23" transform="translate(934.36 514.43)"><tspan x="0" y="0">9</tspan></text><text class="cls-23" transform="translate(1049.51 392.78)"><tspan x="0" y="0">7</tspan></text><text class="cls-23" transform="translate(930.58 327.68)"><tspan x="0" y="0">6</tspan></text><text class="cls-23" transform="translate(808.04 392.78)"><tspan x="0" y="0">21</tspan></text><text class="cls-22" transform="translate(2718.22 215.42)"><tspan x="0" y="0">15</tspan></text><text class="cls-22" transform="translate(2885.97 187.47)"><tspan x="0" y="0">11</tspan></text><g class="cls-33"><text class="cls-17" transform="translate(3052.69 215.42)"><tspan x="0" y="0">16</tspan></text></g><text class="cls-19" transform="translate(3217.48 493.55)"><tspan x="0" y="0">19</tspan></text><text class="cls-23" transform="translate(2900.94 502.99)"><tspan x="0" y="0">9</tspan></text><text class="cls-23" transform="translate(3016.08 381.34)"><tspan x="0" y="0">7</tspan></text><text class="cls-23" transform="translate(2897.15 316.24)"><tspan x="0" y="0">6</tspan></text><text class="cls-23" transform="translate(2774.61 381.34)"><tspan x="0" y="0">21</tspan></text></g></g></svg>