<?xml version="1.0" encoding="UTF-8"?><svg id="Capa_2" xmlns="http://www.w3.org/2000/svg" viewBox="0 0 2628.94 986.47"><defs><style>.cls-1,.cls-2,.cls-3,.cls-4,.cls-5,.cls-6,.cls-7{fill:#fff;}.cls-1,.cls-2,.cls-3,.cls-6{stroke:#695ae5;}.cls-1,.cls-2,.cls-6{stroke-linejoin:round;stroke-width:4px;}.cls-1,.cls-8{opacity:.3;}.cls-9{fill:#08a045;}.cls-9,.cls-10{font-size:37.26px;}.cls-9,.cls-10,.cls-11{font-family:FiraCode-Medium, 'Fira Code';font-variation-settings:'wght' 500;font-weight:500;}.cls-12,.cls-10,.cls-13,.cls-11,.cls-14,.cls-8{fill:#695ae5;}.cls-12,.cls-6,.cls-15{opacity:.3;}.cls-16{opacity:.35;}.cls-3{stroke-width:8.32px;}.cls-3,.cls-17,.cls-18{stroke-miterlimit:10;}.cls-17{fill:rgba(255,255,255,.15);stroke:rgba(105,90,229,.3);stroke-dasharray:0 0 9.62 14.43;stroke-linecap:round;stroke-width:3.37px;}.cls-18{fill:rgba(8,160,69,.15);stroke:#08a045;stroke-width:3.66px;}.cls-4,.cls-5,.cls-7{font-family:Helvetica, Helvetica;}.cls-4,.cls-7{font-size:38px;}.cls-5{font-size:45.4px;}.cls-11,.cls-14{font-size:34.61px;}.cls-14{font-family:FiraCode-Bold, 'Fira Code';font-variation-settings:'wght' 700;font-weight:700;}.cls-7{letter-spacing:-.05em;}</style></defs><g id="Capa_2-2"><g><rect class="cls-3" x="4.16" y="113.61" width="2620.61" height="868.7" rx="57.95" ry="57.95"/><text class="cls-14" transform="translate(660.32 915.26)"><tspan x="0" y="0">Estudiantes inscritos a tenis de mesa y bolos, pero no a fútbol</tspan></text><rect class="cls-13" x="4.16" y="0" width="2620.61" height="71.02" rx="35.51" ry="35.51"/><text class="cls-5" transform="translate(1298.07 53.23)"><tspan x="0" y="0">U</tspan></text><rect class="cls-13" x="1451.95" y="217" width="127.57" height="58.55" rx="10.8" ry="10.8"/><text class="cls-4" transform="translate(1499.81 258.69)"><tspan x="0" y="0">B</tspan></text><rect class="cls-13" x="712.51" y="217" width="127.57" height="58.55" rx="10.8" ry="10.8"/><text class="cls-7" transform="translate(760.37 258.69)"><tspan x="0" y="0">A</tspan></text><rect class="cls-12" x="792.21" y="702.16" width="127.57" height="58.55" rx="10.8" ry="10.8"/><text class="cls-4" transform="translate(840.07 743.84)"><tspan x="0" y="0">C</tspan></text><polyline class="cls-2" points="1451.95 246.28 1423.52 246.28 1389 300.93 1366.36 300.93"/><rect class="cls-8" x="1788.86" y="438.57" width="127.57" height="58.55" rx="10.8" ry="10.8"/><text class="cls-4" transform="translate(1836.73 480.26)"><tspan x="0" y="0">D</tspan></text><polyline class="cls-1" points="1788.86 467.85 1760.43 467.85 1725.91 522.5 1703.27 522.5"/><polyline class="cls-6" points="919.78 731.44 948.73 731.44 988.91 660.41 1026.38 660.41"/><polyline class="cls-2" points="840.07 246.28 862.25 246.28 901.38 280.19 921.34 280.19"/><path class="cls-17" d="M1388.72,383.84c0-92.88-75.29-168.17-168.17-168.17-30.63,0-59.35,8.19-84.08,22.5,50.26,29.08,84.08,83.42,84.08,145.66,0,.13,0,.26,0,.39,50.2,28.97,84.03,83.11,84.24,145.19,50.18-29.1,83.94-83.39,83.94-145.58Z"/><path class="cls-17" d="M1136.47,529.51c-24.74,14.31-53.45,22.5-84.08,22.5s-59.23-8.16-83.93-22.41c0,.13,0,.26,0,.39,0,92.88,75.29,168.17,168.17,168.17s168.17-75.29,168.17-168.17c0-.19,0-.38,0-.57-24.77,14.36-53.54,22.59-84.23,22.59s-59.35-8.19-84.08-22.5Z"/><path class="cls-17" d="M1220.55,384.24c-.14,62.08-33.92,116.26-84.08,145.27,24.74,14.31,53.45,22.5,84.08,22.5s59.46-8.23,84.23-22.59c-.21-62.07-34.04-116.22-84.24-145.19Z"/><path class="cls-17" d="M1052.39,384.42c0-.19,0-.38,0-.57,0-62.24,33.82-116.59,84.08-145.66-24.74-14.31-53.45-22.5-84.08-22.5-92.88,0-168.17,75.29-168.17,168.17,0,62.31,33.89,116.7,84.24,145.76,.14-62.02,33.86-116.15,83.93-145.18Z"/><path class="cls-18" d="M1052.39,383.84c0,.19,0,.38,0,.57,24.77-14.36,53.54-22.59,84.23-22.59s59.23,8.16,83.93,22.41c0-.13,0-.26,0-.39,0-62.24-33.82-116.59-84.08-145.66-50.26,29.08-84.08,83.42-84.08,145.66Z"/><path class="cls-17" d="M1136.47,529.51c-50.11-28.99-83.87-83.09-84.08-145.09-50.08,29.04-83.79,83.17-83.93,145.18,24.7,14.25,53.36,22.41,83.93,22.41s59.35-8.19,84.08-22.5Z"/><path class="cls-17" d="M1052.39,384.42c.21,62,33.97,116.1,84.08,145.09,50.16-29.02,83.94-83.19,84.08-145.27-24.7-14.25-53.36-22.41-83.93-22.41s-59.46,8.23-84.23,22.59Z"/><g class="cls-16"><text class="cls-10" transform="translate(953.45 361.82)"><tspan x="0" y="0">50</tspan></text></g><g class="cls-16"><text class="cls-10" transform="translate(1114.27 438.57)"><tspan x="0" y="0">45</tspan></text></g><g class="cls-16"><text class="cls-10" transform="translate(1282.44 361.82)"><tspan x="0" y="0">30</tspan></text></g><text class="cls-9" transform="translate(1114.27 315.98)"><tspan x="0" y="0">10</tspan></text><g class="cls-16"><text class="cls-10" transform="translate(1217.5 501.78)"><tspan x="0" y="0">30</tspan></text></g><g class="cls-15"><text class="cls-11" transform="translate(1115.86 627.06)"><tspan x="0" y="0">35</tspan></text></g><g class="cls-16"><text class="cls-10" transform="translate(1016.6 501.78)"><tspan x="0" y="0">40</tspan></text></g><circle class="cls-17" cx="1579.52" cy="636.92" r="168.79"/><g class="cls-16"><text class="cls-10" transform="translate(1545.98 643.31)"><tspan x="0" y="0">110</tspan></text></g></g></g></svg>