<?xml version="1.0" encoding="UTF-8"?><svg id="Capa_2" xmlns="http://www.w3.org/2000/svg" viewBox="0 0 6425.34 1560.89"><defs><style>.cls-1{stroke-width:6px;}.cls-1,.cls-2,.cls-3,.cls-4,.cls-5,.cls-6,.cls-7,.cls-8,.cls-9,.cls-10,.cls-11,.cls-12,.cls-13,.cls-14,.cls-15,.cls-16,.cls-17{stroke-miterlimit:10;}.cls-1,.cls-4{fill:rgba(31,132,199,.15);stroke:#1f84c7;}.cls-18{letter-spacing:-.05em;}.cls-18,.cls-2,.cls-19,.cls-20{fill:#fff;}.cls-18,.cls-20{font-family:Helvetica, Helvetica;font-size:66.45px;}.cls-2{stroke-width:9px;}.cls-2,.cls-3,.cls-5,.cls-6,.cls-7,.cls-8,.cls-9,.cls-10,.cls-11,.cls-19,.cls-12,.cls-13,.cls-14,.cls-15,.cls-16,.cls-17{stroke:#695ae5;}.cls-3{stroke-dasharray:0 0 41.96 31.47;}.cls-3,.cls-5,.cls-6,.cls-7,.cls-8,.cls-9,.cls-10,.cls-11,.cls-12,.cls-13,.cls-14,.cls-15,.cls-16,.cls-17{fill:none;}.cls-3,.cls-5,.cls-6,.cls-7,.cls-9,.cls-10,.cls-11,.cls-12,.cls-13,.cls-14,.cls-15,.cls-16,.cls-17{stroke-linecap:round;stroke-width:4px;}.cls-4{stroke-width:5.99px;}.cls-5{stroke-dasharray:0 0 38.94 29.2;}.cls-6{stroke-dasharray:0 0 42.11 31.59;}.cls-21{opacity:.35;}.cls-7{stroke-dasharray:0 0 39.21 29.41;}.cls-8{stroke-width:2px;}.cls-9{stroke-dasharray:0 0 42.27 31.7;}.cls-10{stroke-dasharray:0 0 39.24 29.43;}.cls-11{stroke-dasharray:0 0 42.1 31.58;}.cls-19{stroke-linejoin:round;stroke-width:6.99px;}.cls-12{stroke-dasharray:0 0 41.96 31.47;}.cls-13{stroke-dasharray:0 0 41.57 31.18;}.cls-14{stroke-dasharray:0 0 42.1 31.58;}.cls-22{font-family:FiraCode-SemiBold, 'Fira Code';font-size:190.44px;font-weight:600;}.cls-22,.cls-23{fill:#695ae5;}.cls-16{stroke-dasharray:0 0 39.3 29.47;}.cls-17{stroke-dasharray:0 0 41.59 31.19;}</style></defs><g id="Capa_2-2"><g><rect class="cls-2" x="3387.45" y="191.52" width="3033.39" height="1364.87" rx="68.87" ry="68.87"/><rect class="cls-23" x="3387.45" y="0" width="3033.39" height="102.39" rx="26.7" ry="26.7"/><text class="cls-20" transform="translate(4880.15 72.88)"><tspan x="0" y="0">U</tspan></text><g class="cls-21"><g><path class="cls-8" d="M4556.3,1009.09c-102.54-60.99-171.25-172.91-171.25-300.88,0-193.2,156.62-349.83,349.83-349.83,62.46,0,121.1,16.37,171.86,45.06"/><g><path class="cls-15" d="M4556.3,1009.09c-5.74-3.41-11.37-6.98-16.89-10.71"/><path class="cls-5" d="M4515.92,981.06c-79.79-64.12-130.86-162.51-130.86-272.84,0-193.2,156.62-349.83,349.83-349.83,50.15,0,97.83,10.55,140.95,29.56"/><path class="cls-15" d="M4889.06,394.11c5.99,2.95,11.89,6.06,17.68,9.34"/></g></g><g><path class="cls-8" d="M5084.71,708.21c0,128.03-68.78,239.99-171.4,300.97"/><g><path class="cls-15" d="M5084.71,708.21c0,6.71-.19,13.37-.56,19.99"/><path class="cls-17" d="M5081.01,759.23c-13.75,94.14-65,176.1-138.09,230.25"/><path class="cls-15" d="M4930.2,998.48c-5.52,3.72-11.15,7.29-16.89,10.7"/></g></g><g><path class="cls-8" d="M5084.69,709.03c-51.38-29.65-111-46.62-174.58-46.62s-123.7,17.11-175.22,46.99c0-.4,0-.79,0-1.19,0-127.55,68.27-239.15,170.25-300.27"/><g><path class="cls-15" d="M5084.69,709.03c-5.76-3.33-11.63-6.49-17.6-9.5"/><path class="cls-14" d="M5038.28,686.64c-39.69-15.64-82.92-24.23-128.17-24.23-51.09,0-99.64,10.96-143.4,30.65"/><path class="cls-15" d="M4752.47,699.87c-5.96,3.01-11.82,6.19-17.58,9.53,0-.4,0-.79,0-1.19,0-6.31,.17-12.58,.5-18.81"/><path class="cls-13" d="M4738.41,658.38c13.43-94.17,64.37-176.26,137.2-230.64"/><path class="cls-15" d="M4888.29,418.71c5.51-3.74,11.12-7.33,16.85-10.76"/></g></g><g><path class="cls-8" d="M4560.29,1011.43c.29-129.02,70.43-241.64,174.6-302.03,.42,128.99,70.66,241.54,174.9,301.84"/><g><path class="cls-15" d="M4560.29,1011.43c.02-6.71,.22-13.37,.61-19.99"/><path class="cls-3" d="M4564.14,960.15c14.17-94.91,66.47-177.37,140.81-231.28"/><path class="cls-15" d="M4717.89,719.92c5.56-3.66,11.23-7.17,17-10.52,.02,6.71,.23,13.37,.63,19.99"/><path class="cls-12" d="M4738.8,760.68c14.27,94.88,66.64,177.28,141.04,231.12"/><path class="cls-15" d="M4892.78,1000.74c5.56,3.66,11.24,7.16,17.01,10.5"/></g></g></g><path class="cls-1" d="M5434.53,708.21c0,129.36-70.21,242.32-174.6,302.85,0-1.3-.02-2.6-.03-3.9-.03-1.72-.07-3.44-.11-5.15-.04-1.41-.09-2.82-.15-4.23-.08-1.95-.18-3.9-.29-5.85-.05-.99-.11-1.98-.18-2.97-.01-.23-.03-.46-.05-.69-.09-1.36-.19-2.71-.29-4.05-.01-.05-.01-.1-.01-.14-.11-1.28-.21-2.55-.33-3.83-.06-.7-.13-1.39-.2-2.1-.19-1.96-.39-3.93-.62-5.89-.07-.65-.15-1.3-.23-1.95-.13-1.13-.27-2.25-.41-3.36-.22-1.71-.45-3.41-.71-5.11-.18-1.3-.37-2.6-.58-3.9,0-.09-.02-.19-.04-.28-.43-2.77-.9-5.52-1.4-8.27-.02-.13-.04-.26-.07-.4-.5-2.76-1.04-5.5-1.61-8.23-.29-1.42-.59-2.83-.91-4.24-.3-1.41-.62-2.82-.96-4.23-.65-2.81-1.34-5.61-2.07-8.4-.28-1.08-.56-2.16-.86-3.24-.12-.45-.24-.91-.37-1.36-.33-1.23-.68-2.45-1.03-3.66-.05-.18-.1-.36-.15-.54-.75-2.6-1.53-5.18-2.34-7.75-.42-1.36-.86-2.73-1.31-4.08-.8-2.46-1.63-4.91-2.49-7.34-.09-.26-.18-.52-.28-.79-.95-2.67-1.93-5.33-2.95-7.98-.5-1.33-1.02-2.65-1.55-3.97-.43-1.1-.87-2.2-1.32-3.29-1.16-2.84-2.36-5.67-3.6-8.48-.57-1.3-1.15-2.59-1.74-3.88-.49-1.1-1-2.19-1.51-3.28-.09-.19-.18-.38-.27-.57-.59-1.28-1.2-2.55-1.82-3.82-.53-1.1-1.07-2.19-1.61-3.28-.08-.18-.17-.35-.26-.52-.58-1.16-1.16-2.32-1.76-3.47-.18-.35-.36-.71-.55-1.07-.51-.99-1.03-1.98-1.56-2.97-.59-1.12-1.19-2.25-1.81-3.36-1.23-2.28-2.5-4.55-3.8-6.8-.31-.55-.63-1.1-.94-1.64-1.57-2.7-3.18-5.39-4.84-8.05-.64-1.07-1.31-2.13-1.98-3.19-.43-.68-.86-1.36-1.3-2.03-.25-.41-.52-.82-.79-1.23-.57-.9-1.16-1.79-1.75-2.68-.23-.35-.46-.7-.7-1.05-.71-1.07-1.42-2.13-2.14-3.19-.1-.14-.2-.28-.3-.43-.92-1.34-1.84-2.67-2.78-4-.14-.2-.29-.41-.44-.62-.8-1.13-1.61-2.26-2.43-3.38-.3-.43-.62-.87-.94-1.3-1.01-1.38-2.03-2.75-3.07-4.12-.91-1.21-1.83-2.41-2.77-3.61-.46-.6-.92-1.19-1.39-1.78-.94-1.21-1.9-2.41-2.86-3.6-1.08-1.33-2.16-2.65-3.25-3.96-.19-.23-.38-.45-.57-.68-1.05-1.25-2.1-2.49-3.17-3.73-.05-.06-.11-.13-.17-.2-1.2-1.39-2.41-2.78-3.64-4.15-1.06-1.2-2.14-2.39-3.23-3.58-.48-.53-.97-1.06-1.46-1.59-.73-.79-1.47-1.59-2.22-2.37-.34-.36-.68-.72-1.02-1.08-2.4-2.53-4.84-5.02-7.32-7.47-.17-.17-.35-.34-.52-.51-.96-.95-1.93-1.9-2.9-2.83-.47-.46-.95-.92-1.43-1.37-1.38-1.32-2.77-2.62-4.17-3.91-1.14-1.06-2.29-2.1-3.44-3.13-1.22-1.1-2.44-2.19-3.68-3.26-1.74-1.52-3.5-3.03-5.27-4.51-1.19-1-2.38-1.99-3.58-2.96-.27-.22-.53-.44-.8-.66-1.02-.83-2.04-1.65-3.07-2.47-.36-.28-.71-.56-1.07-.85-1.38-1.08-2.76-2.15-4.15-3.21-1.25-.95-2.5-1.9-3.76-2.82-.56-.42-1.12-.84-1.68-1.24-.95-.71-1.9-1.4-2.86-2.08-.36-.26-.72-.51-1.07-.77-1.32-.94-2.65-1.88-3.99-2.8-.37-.25-.73-.5-1.1-.75-1.24-.86-2.48-1.7-3.74-2.53-.09-.06-.19-.13-.28-.19-1.42-.95-2.85-1.89-4.29-2.81-.13-.08-.25-.16-.38-.25-1.42-.91-2.84-1.81-4.27-2.7-.13-.08-.26-.16-.39-.24-1.58-.98-3.16-1.95-4.76-2.9-.04-.03-.08-.05-.12-.08-1.59-.95-3.19-1.9-4.81-2.82,0-.27,0-.55,0-.82,0-129.48-70.35-242.53-174.91-303.01,.86-.5,1.73-1,2.6-1.49,1.55-.88,3.12-1.75,4.69-2.61,.73-.4,1.46-.8,2.19-1.19,1.01-.55,2.03-1.09,3.05-1.62,1.03-.55,2.07-1.09,3.12-1.62,2.68-1.37,5.37-2.71,8.09-4.01,1.06-.52,2.13-1.02,3.2-1.52,.1-.05,.2-.09,.3-.14,1.11-.52,2.22-1.03,3.34-1.54,1.44-.65,2.88-1.29,4.33-1.93,1.24-.54,2.49-1.08,3.74-1.61,.06-.02,.11-.04,.16-.07,1.28-.54,2.57-1.07,3.86-1.6,1.33-.54,2.66-1.07,3.99-1.6,1.2-.47,2.4-.94,3.61-1.4,1.45-.55,2.91-1.1,4.37-1.63,1.28-.47,2.56-.93,3.84-1.39,.06-.02,.12-.04,.18-.06,1.14-.4,2.29-.8,3.43-1.19,1.75-.59,3.51-1.18,5.28-1.74,1.14-.38,2.29-.74,3.45-1.1,.05-.01,.09-.03,.13-.04,1.34-.42,2.7-.83,4.05-1.23,1.16-.35,2.33-.69,3.49-1.02,1.6-.46,3.21-.91,4.81-1.34,1.18-.32,2.36-.63,3.54-.94,.51-.13,1.02-.26,1.53-.39,1.1-.28,2.21-.56,3.32-.83,1.4-.34,2.81-.68,4.22-1,1.2-.28,2.4-.55,3.6-.81,.24-.06,.49-.11,.73-.16,1.39-.3,2.78-.6,4.17-.88,1.38-.29,2.77-.56,4.16-.83,3.08-.59,6.16-1.14,9.26-1.64,1.07-.18,2.14-.35,3.21-.51,1.34-.21,2.68-.41,4.01-.6,.83-.12,1.65-.24,2.47-.34,2.53-.35,5.07-.67,7.62-.95,1.33-.15,2.67-.3,4-.43,.13-.02,.25-.03,.37-.04,1.35-.14,2.7-.26,4.05-.38,1.29-.12,2.59-.23,3.88-.32,.31-.03,.62-.06,.94-.08,1.17-.09,2.34-.17,3.5-.24,1.74-.12,3.47-.22,5.22-.3,1.42-.08,2.84-.14,4.26-.19h.08c1.15-.05,2.3-.09,3.46-.12,.6-.02,1.2-.03,1.8-.04,1.17-.03,2.35-.05,3.53-.07h.26c1.47-.02,2.94-.03,4.42-.03,193.21,0,349.83,156.62,349.83,349.82Z"/><path class="cls-1" d="M5259.94,1012.24c0,193.2-156.63,349.83-349.83,349.83s-349.82-156.63-349.82-349.83v-.81c51.38,29.65,111.01,46.61,174.59,46.61s123.46-17.03,174.91-46.8c.03,.02,.05,.03,.08,.05,.6,.35,1.21,.69,1.81,1.04,1.81,1.03,3.64,2.05,5.47,3.05,.71,.39,1.41,.77,2.12,1.15,1.1,.59,2.2,1.18,3.31,1.75,3.54,1.87,7.12,3.67,10.74,5.4,1.23,.6,2.47,1.18,3.71,1.76,.04,.02,.08,.04,.12,.05,1.28,.61,2.57,1.2,3.86,1.77,2.57,1.17,5.15,2.3,7.75,3.39,.37,.15,.74,.31,1.1,.46,.95,.4,1.9,.8,2.86,1.18,2.63,1.08,5.27,2.12,7.93,3.12,1.25,.48,2.51,.95,3.78,1.41,.13,.05,.25,.09,.38,.14,1.15,.42,2.3,.83,3.46,1.24,.13,.05,.27,.1,.41,.14,1.34,.48,2.69,.94,4.04,1.39,1.35,.46,2.71,.91,4.07,1.35,1.39,.45,2.79,.9,4.19,1.33,1.33,.41,2.67,.82,4.01,1.21,1.37,.41,2.75,.81,4.13,1.2,1.39,.4,2.77,.78,4.16,1.15,1.3,.35,2.6,.7,3.9,1.03,.33,.09,.65,.17,.98,.25,1.16,.3,2.32,.59,3.48,.87,1.4,.34,2.81,.67,4.22,1,.87,.2,1.74,.4,2.62,.59,.27,.06,.54,.12,.82,.18,.57,.13,1.14,.25,1.72,.38,1.1,.23,2.21,.46,3.32,.69,1.22,.25,2.45,.5,3.67,.73,.85,.17,1.71,.33,2.56,.48,2.42,.45,4.85,.88,7.28,1.27,.79,.13,1.58,.26,2.37,.38,.58,.09,1.17,.18,1.75,.27,4.37,.66,8.76,1.24,13.17,1.74,1.29,.14,2.58,.28,3.87,.41,1.61,.16,3.21,.32,4.82,.45,1.33,.12,2.67,.23,4.01,.33,.07,.01,.15,.02,.23,.02,1.33,.1,2.68,.2,4.02,.28,.88,.06,1.76,.11,2.65,.15,1.14,.07,2.29,.13,3.44,.18,1.01,.05,2.02,.1,3.03,.13,1.24,.05,2.48,.09,3.72,.12,.47,.02,.95,.03,1.43,.04,1.23,.03,2.47,.05,3.71,.07h.2c1.47,.02,2.95,.03,4.43,.03,63.85,0,123.7-17.1,175.23-46.98,.01,.39,.01,.79,.01,1.18Z"/><rect class="cls-23" x="5521.74" y="360.24" width="223.06" height="102.39" rx="18.89" ry="18.89"/><text class="cls-20" transform="translate(5605.44 433.12)"><tspan x="0" y="0">C</tspan></text><rect class="cls-23" x="4063.48" y="432.31" width="223.06" height="102.39" rx="18.89" ry="18.89"/><rect class="cls-23" x="4211.85" y="1284.69" width="223.06" height="102.39" rx="18.89" ry="18.89"/><text class="cls-20" transform="translate(4295.54 1357.57)"><tspan x="0" y="0">B</tspan></text><polyline class="cls-19" points="5521.74 411.43 5472.02 411.43 5411.67 506.99 5372.08 506.99"/><polyline class="cls-19" points="4434.91 1335.88 4485.54 1335.88 4555.79 1211.68 4621.31 1211.68"/><polyline class="cls-19" points="4286.54 483.5 4325.33 483.5 4393.75 542.8 4428.64 542.8"/><text class="cls-18" transform="translate(4145.77 505.19)"><tspan x="0" y="0">A</tspan></text><rect class="cls-2" x="4.5" y="191.52" width="3033.39" height="1364.87" rx="68.87" ry="68.87"/><rect class="cls-23" x="4.5" y="0" width="3033.39" height="102.39" rx="26.7" ry="26.7"/><text class="cls-20" transform="translate(1497.2 72.88)"><tspan x="0" y="0">U</tspan></text><rect class="cls-23" x="2138.8" y="360.24" width="223.06" height="102.39" rx="18.89" ry="18.89"/><text class="cls-20" transform="translate(2222.49 433.12)"><tspan x="0" y="0">C</tspan></text><rect class="cls-23" x="680.54" y="432.31" width="223.06" height="102.39" rx="18.89" ry="18.89"/><rect class="cls-23" x="828.9" y="1284.69" width="223.06" height="102.39" rx="18.89" ry="18.89"/><text class="cls-20" transform="translate(912.59 1357.57)"><tspan x="0" y="0">B</tspan></text><polyline class="cls-19" points="2138.8 411.43 2089.08 411.43 2028.73 506.99 1989.14 506.99"/><polyline class="cls-19" points="1051.96 1335.88 1102.59 1335.88 1172.84 1211.68 1238.36 1211.68"/><polyline class="cls-19" points="903.59 483.5 942.38 483.5 1010.8 542.8 1045.7 542.8"/><text class="cls-18" transform="translate(762.82 505.19)"><tspan x="0" y="0">A</tspan></text><path class="cls-4" d="M1701.75,707.5c-.3,129.14-70.56,241.84-174.9,302.2,51.46,29.77,111.19,46.81,174.91,46.81s123.69-17.12,175.22-46.99c-.43-129.12-70.81-241.76-175.23-302.02Z"/><path class="cls-4" d="M1526.85,1009.7c-104.24-60.3-174.47-172.84-174.9-301.82-104.17,60.4-174.3,173-174.6,302.02,51.38,29.65,111,46.62,174.58,46.62s123.46-17.05,174.91-46.81Z"/><g class="cls-21"><g><path class="cls-8" d="M1876.98,1009.52c104.39-60.53,174.61-173.48,174.61-302.83,0-193.2-156.62-349.83-349.83-349.83-63.72,0-123.46,17.05-174.91,46.81,104.56,60.49,174.91,173.53,174.91,303.01"/><g><path class="cls-15" d="M1876.98,1009.52c5.77-3.35,11.44-6.86,17-10.52"/><path class="cls-7" d="M1917.83,981.81c81.44-64.05,133.75-163.47,133.75-275.12,0-193.2-156.62-349.83-349.83-349.83-51.36,0-100.13,11.07-144.06,30.96"/><path class="cls-15" d="M1544.44,394.16c-5.96,3.01-11.83,6.18-17.59,9.51,5.78,3.34,11.45,6.85,17.01,10.5"/><path class="cls-6" d="M1569.44,432.69c71.86,57.12,120.74,141.91,130.52,238.26"/><path class="cls-15" d="M1701.2,686.69c.37,6.62,.56,13.28,.56,19.99"/></g></g><g><path class="cls-8" d="M1177.35,1009.89c0,.27-.01,.54-.01,.82,0,193.2,156.62,349.83,349.83,349.83s349.83-156.62,349.83-349.83c0-.4-.01-.79-.02-1.19"/><g><path class="cls-15" d="M1177.35,1009.89c0,.27-.01,.54-.01,.82,0,6.44,.17,12.83,.52,19.18"/><path class="cls-16" d="M1180.68,1059.22c23.62,170.24,169.75,301.31,346.49,301.31s331.38-138.83,348.24-316.32"/><path class="cls-15" d="M1876.5,1029.51c.33-6.23,.5-12.5,.5-18.8,0-.4-.01-.79-.02-1.19"/></g></g><g><path class="cls-8" d="M1351.95,707.88c0-.4-.02-.79-.02-1.19,0-129.48,70.35-242.53,174.91-303.01-51.46-29.77-111.19-46.81-174.91-46.81-193.2,0-349.83,156.62-349.83,349.83,0,129.62,70.5,242.77,175.24,303.21"/><g><path class="cls-15" d="M1351.95,707.88c0-.4-.02-.79-.02-1.19,0-6.31,.17-12.58,.5-18.8"/><path class="cls-9" d="M1355.53,656.34c13.8-95.73,66.36-178.92,141.26-233.16"/><path class="cls-15" d="M1509.83,414.17c5.56-3.66,11.24-7.16,17.01-10.5-5.76-3.33-11.63-6.51-17.59-9.51"/><path class="cls-10" d="M1482.45,382.03c-40.33-16.23-84.38-25.17-130.52-25.17-193.2,0-349.83,156.62-349.83,349.83,0,117.19,57.63,220.92,146.09,284.4"/><path class="cls-15" d="M1160.33,999.41c5.57,3.65,11.24,7.15,17.03,10.48"/></g></g><g><path class="cls-8" d="M1701.75,707.5c-51.38-29.65-111-46.62-174.58-46.62s-123.69,17.12-175.22,46.99"/><g><path class="cls-15" d="M1701.75,707.5c-5.77-3.33-11.63-6.49-17.6-9.49"/><path class="cls-11" d="M1655.33,685.11c-39.69-15.64-82.92-24.23-128.17-24.23-51.1,0-99.64,10.96-143.4,30.66"/><path class="cls-15" d="M1369.53,698.35c-5.96,3.01-11.82,6.19-17.58,9.53"/></g></g></g><text class="cls-22" transform="translate(3098.41 906.67)"><tspan x="0" y="0">!=</tspan></text></g></g></svg>