<?xml version="1.0" encoding="UTF-8"?><svg id="Capa_2" xmlns="http://www.w3.org/2000/svg" viewBox="0 0 3042.39 2665.77"><defs><style>.cls-1{letter-spacing:-.05em;}.cls-1,.cls-2,.cls-3,.cls-4,.cls-5,.cls-6,.cls-7,.cls-8,.cls-9,.cls-10,.cls-11,.cls-12{fill:#fff;}.cls-1,.cls-13,.cls-14,.cls-9,.cls-10,.cls-12{font-family:Helvetica, Helvetica;}.cls-1,.cls-9{font-size:66.45px;}.cls-15,.cls-16,.cls-3,.cls-17,.cls-18,.cls-19,.cls-20,.cls-21,.cls-22,.cls-23,.cls-24,.cls-6,.cls-25,.cls-26,.cls-27,.cls-28,.cls-8,.cls-29,.cls-30,.cls-31,.cls-32{stroke-miterlimit:10;}.cls-15,.cls-17{fill:rgba(31,132,199,.15);stroke:#1f84c7;}.cls-15,.cls-28{stroke-width:2.89px;}.cls-33{fill:#1d1d1b;font-size:56px;}.cls-16{stroke-dasharray:0 0 13.93 20.9;}.cls-16,.cls-3,.cls-18,.cls-5,.cls-19,.cls-20,.cls-21,.cls-22,.cls-23,.cls-6,.cls-25,.cls-26,.cls-7,.cls-29,.cls-30,.cls-11,.cls-31,.cls-32{stroke:#695ae5;}.cls-16,.cls-18,.cls-19,.cls-20,.cls-21,.cls-22,.cls-23,.cls-25,.cls-26,.cls-27,.cls-29,.cls-30,.cls-31,.cls-32{fill:none;}.cls-16,.cls-18,.cls-19,.cls-20,.cls-22,.cls-23,.cls-24,.cls-25,.cls-26,.cls-29,.cls-30,.cls-31,.cls-32{stroke-linecap:round;}.cls-16,.cls-20,.cls-25,.cls-29{stroke-width:3px;}.cls-3{stroke-width:9px;}.cls-34,.cls-35{fill:#695ae5;}.cls-34,.cls-11{opacity:.3;}.cls-17{stroke-width:5.99px;}.cls-36{letter-spacing:0em;}.cls-36,.cls-37{font-family:MyriadPro-Regular, 'Myriad Pro';}.cls-4,.cls-18,.cls-5,.cls-19,.cls-22,.cls-23,.cls-26,.cls-8,.cls-30,.cls-11,.cls-32{stroke-width:4px;}.cls-4,.cls-5,.cls-7,.cls-11{stroke-linejoin:round;}.cls-4,.cls-8{stroke:#6057a2;}.cls-18{stroke-dasharray:0 0 42.11 31.59;}.cls-38{opacity:.35;}.cls-14,.cls-12{letter-spacing:-.05em;}.cls-39{font-family:FranklinGothic-Book, 'Franklin Gothic Book';}.cls-19{stroke-dasharray:0 0 39.21 29.41;}.cls-21{stroke-width:2px;}.cls-22{stroke-dasharray:0 0 42.27 31.7;}.cls-23{stroke-dasharray:0 0 39.24 29.43;}.cls-24{fill:rgba(255,255,255,.15);stroke:rgba(105,90,229,.3);stroke-dasharray:0 0 9.62 14.43;stroke-width:3.37px;}.cls-6{stroke-width:7.18px;}.cls-25{stroke-dasharray:0 0 13.95 20.92;}.cls-26{stroke-dasharray:0 0 42.1 31.58;}.cls-7{stroke-width:6.99px;}.cls-27{stroke:#52a5dc;stroke-width:.48px;}.cls-28{fill:rgba(229,37,33,.15);stroke:#e52629;}.cls-29{stroke-dasharray:0 0 13.98 20.97;}.cls-10,.cls-12{font-size:38px;}.cls-32{stroke-dasharray:0 0 39.3 29.47;}</style></defs><g id="Capa_2-2"><g><rect class="cls-6" x="4.5" y="3.59" width="3033.39" height="868.7" rx="54.94" ry="54.94"/><rect class="cls-3" x="4.5" y="1296.4" width="3033.39" height="1364.87" rx="68.87" ry="68.87"/><rect class="cls-35" x="4.5" y="1104.87" width="3033.39" height="102.39" rx="26.7" ry="26.7"/><text class="cls-9" transform="translate(1497.2 1177.76)"><tspan x="0" y="0">U</tspan></text><rect class="cls-35" x="2138.8" y="1465.11" width="223.06" height="102.39" rx="18.89" ry="18.89"/><text class="cls-9" transform="translate(2222.49 1537.99)"><tspan x="0" y="0">C</tspan></text><rect class="cls-35" x="680.54" y="1537.18" width="223.06" height="102.39" rx="18.89" ry="18.89"/><rect class="cls-35" x="828.9" y="2389.56" width="223.06" height="102.39" rx="18.89" ry="18.89"/><text class="cls-9" transform="translate(912.59 2462.44)"><tspan x="0" y="0">B</tspan></text><polyline class="cls-7" points="2138.8 1516.3 2089.08 1516.3 2028.73 1611.86 1989.14 1611.86"/><polyline class="cls-7" points="1051.96 2440.75 1102.59 2440.75 1172.84 2316.55 1238.36 2316.55"/><polyline class="cls-7" points="903.59 1588.37 942.38 1588.37 1010.8 1647.67 1045.7 1647.67"/><text class="cls-1" transform="translate(762.82 1610.06)"><tspan x="0" y="0">A</tspan></text><text class="cls-33" transform="translate(727.88 756.29)"><tspan class="cls-37" x="0" y="0">A</tspan><tspan class="cls-13" x="34.27" y="0" xml:space="preserve"> Δ </tspan><tspan class="cls-36" x="105.83" y="0">C</tspan></text><rect class="cls-35" x="1092.83" y="93.4" width="127.57" height="58.55" rx="10.8" ry="10.8"/><text class="cls-10" transform="translate(1140.69 135.08)"><tspan x="0" y="0">C</tspan></text><rect class="cls-35" x="353.39" y="93.4" width="127.57" height="58.55" rx="10.8" ry="10.8"/><text class="cls-12" transform="translate(401.25 135.08)"><tspan x="0" y="0">A</tspan></text><rect class="cls-34" x="433.09" y="578.56" width="127.57" height="58.55" rx="10.8" ry="10.8"/><text class="cls-10" transform="translate(480.95 620.24)"><tspan x="0" y="0">B</tspan></text><polyline class="cls-5" points="1092.83 122.68 1064.4 122.68 1029.88 177.33 1007.24 177.33"/><polyline class="cls-11" points="560.66 607.84 589.61 607.84 629.79 536.81 667.26 536.81"/><polyline class="cls-5" points="480.95 122.68 503.14 122.68 542.27 156.59 562.22 156.59"/><text class="cls-33" transform="translate(2076.69 756.29)"><tspan class="cls-13" x="0" y="0">B </tspan><tspan class="cls-39" x="52.91" y="0">∩ </tspan><tspan class="cls-13" x="107.19" y="0">(</tspan><tspan class="cls-14" x="125.84" y="0">A</tspan><tspan class="cls-13" x="160.12" y="0" xml:space="preserve"> Δ C)</tspan></text><rect class="cls-35" x="2561.44" y="90.94" width="127.57" height="58.55" rx="10.8" ry="10.8"/><text class="cls-10" transform="translate(2609.3 132.62)"><tspan x="0" y="0">C</tspan></text><rect class="cls-35" x="1821.99" y="90.94" width="127.57" height="58.55" rx="10.8" ry="10.8"/><rect class="cls-35" x="1901.7" y="576.09" width="127.57" height="58.55" rx="10.8" ry="10.8"/><text class="cls-10" transform="translate(1949.56 617.78)"><tspan x="0" y="0">B</tspan></text><polyline class="cls-5" points="2561.44 120.21 2533 120.21 2498.49 174.86 2475.85 174.86"/><polyline class="cls-5" points="2029.26 605.37 2058.22 605.37 2098.39 534.34 2135.86 534.34"/><polyline class="cls-4" points="1949.56 120.21 1971.74 120.21 2010.87 154.12 2030.83 154.12"/><text class="cls-12" transform="translate(1869.05 132.62)"><tspan x="0" y="0">A</tspan></text><line class="cls-8" x1="1521.2" y1="41.16" x2="1521.2" y2="820.63"/><g><path class="cls-24" d="M943.24,410.48c-.88,57.69-31.43,113.41-85.24,143.95-80.83,45.87-183.54,17.53-229.41-63.31-14.91-26.28-21.98-54.87-21.95-83.06"/><path class="cls-15" d="M608.84,115.35c54.12-30.71,118.05-28.15,168.15,1.16-80.45,46-108.59,148.46-62.81,229.12,15.16,26.71,36.53,47.69,61.26,62.16-.16,.1-.33,.19-.5,.29-80.83,45.87-183.54,17.52-229.41-63.31-45.87-80.83-17.53-183.54,63.3-229.41Z"/><path class="cls-15" d="M777.49,116.22c80.83-45.87,183.54-17.53,229.41,63.3,45.87,80.83,17.52,183.54-63.31,229.41-54.12,30.71-118.04,28.15-168.15-1.15,80.45-46,108.58-148.46,62.81-229.13-15.16-26.71-36.53-47.69-61.26-62.15,.16-.1,.33-.19,.5-.29Z"/><path class="cls-28" d="M777,116.52c24.73,14.46,46.1,35.44,61.26,62.15,45.77,80.67,17.64,183.12-62.82,229.12-24.73-14.46-46.1-35.44-61.25-62.15-45.77-80.66-17.64-183.12,62.81-229.12Z"/><path class="cls-28" d="M777,116.52c24.73,14.46,46.1,35.44,61.26,62.15,45.77,80.67,17.64,183.12-62.82,229.12-24.73-14.46-46.1-35.44-61.25-62.15-45.77-80.66-17.64-183.12,62.81-229.12Z"/></g><g><path class="cls-28" d="M2330.39,259.71c0,.13,0,.26,0,.39,50.27,29.01,84.15,83.24,84.36,145.4,50.26-29.14,84.06-83.52,84.06-145.8,0-93.02-75.4-168.42-168.42-168.42-30.68,0-59.44,8.21-84.21,22.54,50.34,29.12,84.21,83.55,84.21,145.88Z"/><path class="cls-28" d="M2414.75,406.08c0-.19,0-.38,0-.57-24.81,14.38-53.62,22.62-84.36,22.62s-59.44-8.21-84.21-22.54c-24.77,14.33-53.53,22.54-84.21,22.54s-59.31-8.17-84.05-22.44c0,.13,0,.26,0,.39,0,93.02,75.4,168.42,168.42,168.42s168.42-75.4,168.42-168.42Z"/><path class="cls-28" d="M2161.97,260.28c0-.19,0-.38,0-.57,0-62.34,33.87-116.76,84.21-145.88-24.77-14.33-53.53-22.54-84.21-22.54-93.02,0-168.42,75.4-168.42,168.42,0,62.4,33.94,116.88,84.37,145.98,.14-62.11,33.91-116.32,84.06-145.4Z"/><path class="cls-27" d="M2161.97,259.71c0,.19,0,.38,0,.57,24.81-14.38,53.62-22.62,84.36-22.62s59.31,8.17,84.05,22.44c0-.13,0-.26,0-.39,0-62.34-33.87-116.76-84.21-145.88-50.34,29.12-84.21,83.55-84.21,145.88Z"/><g><path class="cls-2" d="M2330.38,260.1c-24.74-14.27-53.44-22.44-84.05-22.44s-59.55,8.24-84.36,22.62c.21,62.1,34.02,116.28,84.2,145.31,50.23-29.06,84.06-83.32,84.21-145.49Z"/><path class="cls-31" d="M2330.38,260.1c-24.74-14.27-53.44-22.44-84.05-22.44s-59.55,8.24-84.36,22.62c.21,62.1,34.02,116.28,84.2,145.31,50.23-29.06,84.06-83.32,84.21-145.49Z"/><g><path class="cls-20" d="M2330.19,267.88c.12-2.58,.19-5.17,.19-7.78-2.24-1.29-4.52-2.54-6.83-3.73"/><path class="cls-29" d="M2304.37,247.93c-18.09-6.64-37.64-10.27-58.04-10.27-24.23,0-47.26,5.12-68.08,14.33"/><path class="cls-20" d="M2168.79,256.53c-2.3,1.2-4.58,2.45-6.82,3.75,0,2.61,.08,5.2,.2,7.78"/><path class="cls-16" d="M2164.48,288.82c7.61,43.7,32.07,81.61,66.44,106.8"/><path class="cls-20" d="M2239.54,401.54c2.18,1.4,4.39,2.75,6.64,4.05,2.25-1.3,4.46-2.65,6.64-4.05"/><path class="cls-25" d="M2269.69,389.17c32.61-27.16,54.79-66.4,59.68-110.86"/></g></g><path class="cls-15" d="M2330.38,260.1c-.14,62.17-33.97,116.43-84.21,145.49,24.77,14.33,53.53,22.54,84.21,22.54s59.55-8.24,84.36-22.62c-.21-62.16-34.09-116.4-84.36-145.4Z"/><path class="cls-15" d="M2246.18,405.59c-50.18-29.03-84-83.21-84.2-145.31-50.15,29.08-83.92,83.29-84.06,145.4,24.74,14.27,53.44,22.44,84.05,22.44s59.44-8.21,84.21-22.54Z"/></g><path class="cls-17" d="M1701.75,1812.37c-.3,129.14-70.56,241.84-174.9,302.2,51.46,29.77,111.19,46.81,174.91,46.81s123.69-17.12,175.22-46.99c-.43-129.12-70.81-241.76-175.23-302.02Z"/><path class="cls-17" d="M1526.85,2114.57c-104.24-60.3-174.47-172.84-174.9-301.82-104.17,60.4-174.3,173-174.6,302.02,51.38,29.65,111,46.62,174.58,46.62s123.46-17.05,174.91-46.81Z"/><g class="cls-38"><g><path class="cls-21" d="M1876.98,2114.39c104.39-60.53,174.61-173.48,174.61-302.83,0-193.2-156.62-349.83-349.83-349.83-63.72,0-123.46,17.05-174.91,46.81,104.56,60.49,174.91,173.53,174.91,303.01"/><g><path class="cls-30" d="M1876.98,2114.39c5.77-3.35,11.44-6.86,17-10.52"/><path class="cls-19" d="M1917.83,2086.68c81.44-64.05,133.75-163.47,133.75-275.12,0-193.2-156.62-349.83-349.83-349.83-51.36,0-100.13,11.07-144.06,30.96"/><path class="cls-30" d="M1544.44,1499.03c-5.96,3.01-11.83,6.18-17.59,9.51,5.78,3.34,11.45,6.85,17.01,10.5"/><path class="cls-18" d="M1569.44,1537.56c71.86,57.12,120.74,141.91,130.52,238.26"/><path class="cls-30" d="M1701.2,1791.57c.37,6.62,.56,13.28,.56,19.99"/></g></g><g><path class="cls-21" d="M1177.35,2114.77c0,.27-.01,.54-.01,.82,0,193.2,156.62,349.83,349.83,349.83s349.83-156.62,349.83-349.83c0-.4-.01-.79-.02-1.19"/><g><path class="cls-30" d="M1177.35,2114.77c0,.27-.01,.54-.01,.82,0,6.44,.17,12.83,.52,19.18"/><path class="cls-32" d="M1180.68,2164.09c23.62,170.24,169.75,301.31,346.49,301.31s331.38-138.83,348.24-316.32"/><path class="cls-30" d="M1876.5,2134.39c.33-6.23,.5-12.5,.5-18.8,0-.4-.01-.79-.02-1.19"/></g></g><g><path class="cls-21" d="M1351.95,1812.75c0-.4-.02-.79-.02-1.19,0-129.48,70.35-242.53,174.91-303.01-51.46-29.77-111.19-46.81-174.91-46.81-193.2,0-349.83,156.62-349.83,349.83,0,129.62,70.5,242.77,175.24,303.21"/><g><path class="cls-30" d="M1351.95,1812.75c0-.4-.02-.79-.02-1.19,0-6.31,.17-12.58,.5-18.8"/><path class="cls-22" d="M1355.53,1761.21c13.8-95.73,66.36-178.92,141.26-233.16"/><path class="cls-30" d="M1509.83,1519.05c5.56-3.66,11.24-7.16,17.01-10.5-5.76-3.33-11.63-6.51-17.59-9.51"/><path class="cls-23" d="M1482.45,1486.9c-40.33-16.23-84.38-25.17-130.52-25.17-193.2,0-349.83,156.62-349.83,349.83,0,117.19,57.63,220.92,146.09,284.4"/><path class="cls-30" d="M1160.33,2104.28c5.57,3.65,11.24,7.15,17.03,10.48"/></g></g><g><path class="cls-21" d="M1701.75,1812.37c-51.38-29.65-111-46.62-174.58-46.62s-123.69,17.12-175.22,46.99"/><g><path class="cls-30" d="M1701.75,1812.37c-5.76-3.33-11.63-6.49-17.6-9.49"/><path class="cls-26" d="M1655.33,1789.99c-39.69-15.64-82.92-24.23-128.17-24.23-51.1,0-99.64,10.96-143.4,30.66"/><path class="cls-30" d="M1369.53,1803.22c-5.96,3.01-11.82,6.19-17.58,9.53"/></g></g></g></g></g></svg>