<?xml version="1.0" encoding="UTF-8"?><svg id="Capa_2" xmlns="http://www.w3.org/2000/svg" viewBox="0 0 3042.39 2665.77"><defs><style>.cls-1{stroke-width:6px;}.cls-1,.cls-2,.cls-3,.cls-4,.cls-5,.cls-6,.cls-7,.cls-8,.cls-9,.cls-10,.cls-11,.cls-12,.cls-13,.cls-14,.cls-15,.cls-16,.cls-17,.cls-18,.cls-19,.cls-20,.cls-21,.cls-22,.cls-23{stroke-miterlimit:10;}.cls-1,.cls-3{fill:rgba(31,132,199,.15);stroke:#1f84c7;}.cls-24{letter-spacing:-.05em;}.cls-24,.cls-25,.cls-5,.cls-26,.cls-27,.cls-11,.cls-28,.cls-16,.cls-29,.cls-30,.cls-31,.cls-32{fill:#fff;}.cls-24,.cls-33,.cls-29,.cls-30,.cls-32{font-family:Helvetica, Helvetica;}.cls-24,.cls-29{font-size:66.45px;}.cls-2,.cls-4,.cls-6,.cls-7,.cls-8,.cls-9,.cls-12,.cls-13,.cls-15,.cls-17,.cls-18,.cls-19,.cls-20,.cls-21,.cls-22,.cls-23{fill:none;}.cls-2,.cls-4,.cls-6,.cls-7,.cls-8,.cls-10,.cls-12,.cls-13,.cls-15,.cls-17,.cls-18,.cls-19,.cls-20,.cls-21,.cls-22,.cls-23{stroke-linecap:round;}.cls-2,.cls-5,.cls-6,.cls-7,.cls-27,.cls-9,.cls-11,.cls-28,.cls-13,.cls-15,.cls-17,.cls-20,.cls-31,.cls-23{stroke:#695ae5;}.cls-2,.cls-8{stroke-width:.96px;}.cls-3,.cls-14{stroke-width:2.89px;}.cls-4{stroke-dasharray:0 0 10.06 15.09;}.cls-4,.cls-26,.cls-8,.cls-12,.cls-16,.cls-18,.cls-19,.cls-21,.cls-22{stroke:#6057a2;}.cls-4,.cls-10,.cls-12,.cls-18,.cls-19,.cls-21,.cls-22{stroke-width:3.37px;}.cls-5{stroke-width:9px;}.cls-34,.cls-35{fill:#695ae5;}.cls-34,.cls-31{opacity:.3;}.cls-6{stroke-dasharray:0 0 41.96 31.47;}.cls-6,.cls-7,.cls-26,.cls-27,.cls-13,.cls-15,.cls-16,.cls-17,.cls-20,.cls-31,.cls-23{stroke-width:4px;}.cls-7{stroke-dasharray:0 0 38.94 29.2;}.cls-26,.cls-27,.cls-28,.cls-31{stroke-linejoin:round;}.cls-36{opacity:.35;}.cls-37,.cls-32{letter-spacing:-.05em;}.cls-9{stroke-width:2px;}.cls-10{fill:rgba(255,255,255,.15);stroke:rgba(105,90,229,.3);stroke-dasharray:0 0 9.62 14.43;}.cls-11{stroke-width:7.18px;}.cls-12{stroke-dasharray:0 0 10.06 15.09;}.cls-28{stroke-width:6.99px;}.cls-33{fill:#1d1d1b;font-size:56px;}.cls-13{stroke-dasharray:0 0 41.96 31.47;}.cls-14{fill:rgba(229,37,33,.15);stroke:#e52629;}.cls-15{stroke-dasharray:0 0 41.57 31.18;}.cls-17{stroke-dasharray:0 0 42.1 31.58;}.cls-18{stroke-dasharray:0 0 9.98 14.97;}.cls-30,.cls-32{font-size:38px;}.cls-21{stroke-dasharray:0 0 9.97 14.96;}.cls-22{stroke-dasharray:0 0 10.09 15.14;}.cls-23{stroke-dasharray:0 0 41.59 31.19;}</style></defs><g id="Capa_2-2"><g><rect class="cls-11" x="4.5" y="3.59" width="3033.39" height="868.7" rx="54.94" ry="54.94"/><rect class="cls-5" x="4.5" y="1296.4" width="3033.39" height="1364.87" rx="68.87" ry="68.87"/><rect class="cls-35" x="4.5" y="1104.87" width="3033.39" height="102.39" rx="26.7" ry="26.7"/><text class="cls-29" transform="translate(1497.2 1177.76)"><tspan x="0" y="0">U</tspan></text><g class="cls-36"><g><path class="cls-9" d="M1173.36,2113.96c-102.54-60.99-171.25-172.91-171.25-300.88,0-193.2,156.62-349.83,349.83-349.83,62.46,0,121.1,16.37,171.86,45.06"/><g><path class="cls-20" d="M1173.36,2113.96c-5.74-3.41-11.37-6.98-16.89-10.71"/><path class="cls-7" d="M1132.97,2085.93c-79.79-64.12-130.86-162.51-130.86-272.84,0-193.2,156.62-349.83,349.83-349.83,50.15,0,97.83,10.55,140.95,29.56"/><path class="cls-20" d="M1506.11,1498.98c5.99,2.95,11.89,6.06,17.68,9.34"/></g></g><g><path class="cls-9" d="M1701.76,1813.09c0,128.03-68.78,239.99-171.4,300.97"/><g><path class="cls-20" d="M1701.76,1813.09c0,6.71-.19,13.37-.56,19.99"/><path class="cls-23" d="M1698.07,1864.1c-13.75,94.14-65,176.1-138.09,230.25"/><path class="cls-20" d="M1547.25,2103.35c-5.52,3.72-11.15,7.29-16.89,10.7"/></g></g><g><path class="cls-9" d="M1701.75,1813.91c-51.38-29.65-111-46.62-174.58-46.62s-123.7,17.11-175.22,46.99c0-.4,0-.79,0-1.19,0-127.55,68.27-239.15,170.25-300.27"/><g><path class="cls-20" d="M1701.75,1813.91c-5.76-3.33-11.63-6.49-17.6-9.5"/><path class="cls-17" d="M1655.33,1791.52c-39.69-15.64-82.92-24.23-128.17-24.23-51.09,0-99.64,10.96-143.4,30.66"/><path class="cls-20" d="M1369.53,1804.74c-5.96,3.01-11.82,6.19-17.58,9.53,0-.4,0-.79,0-1.19,0-6.31,.17-12.58,.5-18.81"/><path class="cls-15" d="M1355.46,1763.26c13.43-94.17,64.37-176.26,137.2-230.64"/><path class="cls-20" d="M1505.34,1523.58c5.51-3.74,11.12-7.33,16.85-10.76"/></g></g><g><path class="cls-9" d="M1177.35,2116.31c.29-129.02,70.43-241.64,174.6-302.03,.42,128.99,70.66,241.54,174.9,301.84"/><g><path class="cls-20" d="M1177.35,2116.31c.02-6.71,.22-13.37,.61-19.99"/><path class="cls-6" d="M1181.2,2065.02c14.17-94.91,66.47-177.37,140.81-231.28"/><path class="cls-20" d="M1334.94,1824.79c5.56-3.66,11.23-7.17,17-10.52,.02,6.71,.23,13.37,.63,19.99"/><path class="cls-13" d="M1355.85,1865.56c14.27,94.88,66.64,177.28,141.04,231.12"/><path class="cls-20" d="M1509.83,2105.61c5.56,3.66,11.24,7.16,17.01,10.5"/></g></g></g><path class="cls-1" d="M2051.59,1813.09c0,129.36-70.21,242.32-174.6,302.85,0-1.3-.02-2.6-.03-3.9-.03-1.72-.07-3.44-.11-5.15-.04-1.41-.09-2.82-.15-4.23-.08-1.95-.18-3.9-.29-5.85-.05-.99-.11-1.98-.18-2.97-.01-.23-.03-.46-.05-.69-.09-1.36-.19-2.71-.29-4.05-.01-.05-.01-.1-.01-.14-.11-1.28-.21-2.55-.33-3.83-.06-.7-.13-1.39-.2-2.1-.19-1.96-.39-3.93-.62-5.89-.07-.65-.15-1.3-.23-1.95-.13-1.13-.27-2.25-.41-3.36-.22-1.71-.45-3.41-.71-5.11-.18-1.3-.37-2.6-.58-3.9,0-.09-.02-.19-.04-.28-.43-2.77-.9-5.52-1.4-8.27-.02-.13-.04-.26-.07-.4-.5-2.76-1.04-5.5-1.61-8.23-.29-1.42-.59-2.83-.91-4.24-.3-1.41-.62-2.82-.96-4.23-.65-2.81-1.34-5.61-2.07-8.4-.28-1.08-.56-2.16-.86-3.24-.12-.45-.24-.91-.37-1.36-.33-1.23-.68-2.45-1.03-3.66-.05-.18-.1-.36-.15-.54-.75-2.6-1.53-5.18-2.34-7.75-.42-1.36-.86-2.73-1.31-4.08-.8-2.46-1.63-4.91-2.49-7.34-.09-.26-.18-.52-.28-.79-.95-2.67-1.93-5.33-2.95-7.98-.5-1.33-1.02-2.65-1.55-3.97-.43-1.1-.87-2.2-1.32-3.29-1.16-2.84-2.36-5.67-3.6-8.48-.57-1.3-1.15-2.59-1.74-3.88-.49-1.1-1-2.19-1.51-3.28-.09-.19-.18-.38-.27-.57-.59-1.28-1.2-2.55-1.82-3.82-.53-1.1-1.07-2.19-1.61-3.28-.08-.18-.17-.35-.26-.52-.58-1.16-1.16-2.32-1.76-3.47-.18-.35-.36-.71-.55-1.07-.51-.99-1.03-1.98-1.56-2.97-.59-1.12-1.19-2.25-1.81-3.36-1.23-2.28-2.5-4.55-3.8-6.8-.31-.55-.63-1.1-.94-1.64-1.57-2.7-3.18-5.39-4.84-8.05-.64-1.07-1.31-2.13-1.98-3.19-.43-.68-.86-1.36-1.3-2.03-.25-.41-.52-.82-.79-1.23-.57-.9-1.16-1.79-1.75-2.68-.23-.35-.46-.7-.7-1.05-.71-1.07-1.42-2.13-2.14-3.19-.1-.14-.2-.28-.3-.43-.92-1.34-1.84-2.67-2.78-4-.14-.2-.29-.41-.44-.62-.8-1.13-1.61-2.26-2.43-3.38-.3-.43-.62-.87-.94-1.3-1.01-1.38-2.03-2.75-3.07-4.12-.91-1.21-1.83-2.41-2.77-3.61-.46-.6-.92-1.19-1.39-1.78-.94-1.21-1.9-2.41-2.86-3.6-1.08-1.33-2.16-2.65-3.25-3.96-.19-.23-.38-.45-.57-.68-1.05-1.25-2.1-2.49-3.17-3.73-.05-.06-.11-.13-.17-.2-1.2-1.39-2.41-2.78-3.64-4.15-1.06-1.2-2.14-2.39-3.23-3.58-.48-.53-.97-1.06-1.46-1.59-.73-.79-1.47-1.59-2.22-2.37-.34-.36-.68-.72-1.02-1.08-2.4-2.53-4.84-5.02-7.32-7.47-.17-.17-.35-.34-.52-.51-.96-.95-1.93-1.9-2.9-2.83-.47-.46-.95-.92-1.43-1.37-1.38-1.32-2.77-2.62-4.17-3.91-1.14-1.06-2.29-2.1-3.44-3.13-1.22-1.1-2.44-2.19-3.68-3.26-1.74-1.52-3.5-3.03-5.27-4.51-1.19-1-2.38-1.99-3.58-2.96-.27-.22-.53-.44-.8-.66-1.02-.83-2.04-1.65-3.07-2.47-.36-.28-.71-.56-1.07-.85-1.38-1.08-2.76-2.15-4.15-3.21-1.25-.95-2.5-1.9-3.76-2.82-.56-.42-1.12-.84-1.68-1.24-.95-.71-1.9-1.4-2.86-2.08-.36-.26-.72-.51-1.07-.77-1.32-.94-2.65-1.88-3.99-2.8-.37-.25-.73-.5-1.1-.75-1.24-.86-2.48-1.7-3.74-2.53-.09-.06-.19-.13-.28-.19-1.42-.95-2.85-1.89-4.29-2.81-.13-.08-.25-.16-.38-.25-1.42-.91-2.84-1.81-4.27-2.7-.13-.08-.26-.16-.39-.24-1.58-.98-3.16-1.95-4.76-2.9-.04-.03-.08-.05-.12-.08-1.59-.95-3.19-1.9-4.81-2.82,0-.27,0-.55,0-.82,0-129.48-70.35-242.53-174.91-303.01,.86-.5,1.73-1,2.6-1.49,1.55-.88,3.12-1.75,4.69-2.61,.73-.4,1.46-.8,2.19-1.19,1.01-.55,2.03-1.09,3.05-1.62,1.03-.55,2.07-1.09,3.12-1.62,2.68-1.37,5.37-2.71,8.09-4.01,1.06-.52,2.13-1.02,3.2-1.52,.1-.05,.2-.09,.3-.14,1.11-.52,2.22-1.03,3.34-1.54,1.44-.65,2.88-1.29,4.33-1.93,1.24-.54,2.49-1.08,3.74-1.61,.06-.02,.11-.04,.16-.07,1.28-.54,2.57-1.07,3.86-1.6,1.33-.54,2.66-1.07,3.99-1.6,1.2-.47,2.4-.94,3.61-1.4,1.45-.55,2.91-1.1,4.37-1.63,1.28-.47,2.56-.93,3.84-1.39,.06-.02,.12-.04,.18-.06,1.14-.4,2.29-.8,3.43-1.19,1.75-.59,3.51-1.18,5.28-1.74,1.14-.38,2.29-.74,3.45-1.1,.05-.01,.09-.03,.13-.04,1.34-.42,2.7-.83,4.05-1.23,1.16-.35,2.33-.69,3.49-1.02,1.6-.46,3.21-.91,4.81-1.34,1.18-.32,2.36-.63,3.54-.94,.51-.13,1.02-.26,1.53-.39,1.1-.28,2.21-.56,3.32-.83,1.4-.34,2.81-.68,4.22-1,1.2-.28,2.4-.55,3.6-.81,.24-.06,.49-.11,.73-.16,1.39-.3,2.78-.6,4.17-.88,1.38-.29,2.77-.56,4.16-.83,3.08-.59,6.16-1.14,9.26-1.64,1.07-.18,2.14-.35,3.21-.51,1.34-.21,2.68-.41,4.01-.6,.83-.12,1.65-.24,2.47-.34,2.53-.35,5.07-.67,7.62-.95,1.33-.15,2.67-.3,4-.43,.13-.02,.25-.03,.37-.04,1.35-.14,2.7-.26,4.05-.38,1.29-.12,2.59-.23,3.88-.32,.31-.03,.62-.06,.94-.08,1.17-.09,2.34-.17,3.5-.24,1.74-.12,3.47-.22,5.22-.3,1.42-.08,2.84-.14,4.26-.19h.08c1.15-.05,2.3-.09,3.46-.12,.6-.02,1.2-.03,1.8-.04,1.17-.03,2.35-.05,3.53-.07h.26c1.47-.02,2.94-.03,4.42-.03,193.21,0,349.83,156.62,349.83,349.82Z"/><path class="cls-1" d="M1877,2117.12c0,193.2-156.63,349.83-349.83,349.83s-349.82-156.63-349.82-349.83v-.81c51.38,29.65,111.01,46.61,174.59,46.61s123.46-17.03,174.91-46.8c.03,.02,.05,.03,.08,.05,.6,.35,1.21,.69,1.81,1.04,1.81,1.03,3.64,2.05,5.47,3.05,.71,.39,1.41,.77,2.12,1.15,1.1,.59,2.2,1.18,3.31,1.75,3.54,1.87,7.12,3.67,10.74,5.4,1.23,.6,2.47,1.18,3.71,1.76,.04,.02,.08,.04,.12,.05,1.28,.61,2.57,1.2,3.86,1.77,2.57,1.17,5.15,2.3,7.75,3.39,.37,.15,.74,.31,1.1,.46,.95,.4,1.9,.8,2.86,1.18,2.63,1.08,5.27,2.12,7.93,3.12,1.25,.48,2.51,.95,3.78,1.41,.13,.05,.25,.09,.38,.14,1.15,.42,2.3,.83,3.46,1.24,.13,.05,.27,.1,.41,.14,1.34,.48,2.69,.94,4.04,1.39,1.35,.46,2.71,.91,4.07,1.35,1.39,.45,2.79,.9,4.19,1.33,1.33,.41,2.67,.82,4.01,1.21,1.37,.41,2.75,.81,4.13,1.2,1.39,.4,2.77,.78,4.16,1.15,1.3,.35,2.6,.7,3.9,1.03,.33,.09,.65,.17,.98,.25,1.16,.3,2.32,.59,3.48,.87,1.4,.34,2.81,.67,4.22,1,.87,.2,1.74,.4,2.62,.59,.27,.06,.54,.12,.82,.18,.57,.13,1.14,.25,1.72,.38,1.1,.23,2.21,.46,3.32,.69,1.22,.25,2.45,.5,3.67,.73,.85,.17,1.71,.33,2.56,.48,2.42,.45,4.85,.88,7.28,1.27,.79,.13,1.58,.26,2.37,.38,.58,.09,1.17,.18,1.75,.27,4.37,.66,8.76,1.24,13.17,1.74,1.29,.14,2.58,.28,3.87,.41,1.61,.16,3.21,.32,4.82,.45,1.33,.12,2.67,.23,4.01,.33,.07,.01,.15,.02,.23,.02,1.33,.1,2.68,.2,4.02,.28,.88,.06,1.76,.11,2.65,.15,1.14,.07,2.29,.13,3.44,.18,1.01,.05,2.02,.1,3.03,.13,1.24,.05,2.48,.09,3.72,.12,.47,.02,.95,.03,1.43,.04,1.23,.03,2.47,.05,3.71,.07h.2c1.47,.02,2.95,.03,4.43,.03,63.85,0,123.7-17.1,175.23-46.98,.01,.39,.01,.79,.01,1.18Z"/><rect class="cls-35" x="2138.8" y="1465.11" width="223.06" height="102.39" rx="18.89" ry="18.89"/><text class="cls-29" transform="translate(2222.49 1537.99)"><tspan x="0" y="0">C</tspan></text><rect class="cls-35" x="680.54" y="1537.18" width="223.06" height="102.39" rx="18.89" ry="18.89"/><rect class="cls-35" x="828.9" y="2389.56" width="223.06" height="102.39" rx="18.89" ry="18.89"/><text class="cls-29" transform="translate(912.59 2462.44)"><tspan x="0" y="0">B</tspan></text><polyline class="cls-28" points="2138.8 1516.3 2089.08 1516.3 2028.73 1611.86 1989.14 1611.86"/><polyline class="cls-28" points="1051.96 2440.75 1102.59 2440.75 1172.84 2316.55 1238.36 2316.55"/><polyline class="cls-28" points="903.59 1588.37 942.38 1588.37 1010.8 1647.67 1045.7 1647.67"/><text class="cls-24" transform="translate(762.82 1610.06)"><tspan x="0" y="0">A</tspan></text><path class="cls-10" d="M608.17,406.86c-49.74-29.24-83.13-83.31-83.13-145.18,0-92.94,75.34-168.28,168.28-168.28,30.21,0,58.57,7.96,83.08,21.9"/><path class="cls-3" d="M1029.88,261.68c0,62.23-33.78,116.57-83.99,145.68-.3-92.67-75.53-167.71-168.27-167.71-30.71,0-59.5,8.23-84.29,22.6,0-.19,0-.38,0-.57,0-92.94,75.35-168.28,168.28-168.28s168.28,75.34,168.28,168.28Z"/><path class="cls-3" d="M945.89,407.93c0,92.94-75.34,168.28-168.28,168.28s-168.28-75.35-168.28-168.28c0-62.22,33.77-116.56,83.99-145.68,.3,92.68,75.53,167.71,168.28,167.71,30.71,0,59.5-8.23,84.29-22.6,0,.19,0,.38,0,.57Z"/><path class="cls-14" d="M945.88,407.36c-24.78,14.37-53.58,22.6-84.29,22.6-92.75,0-167.97-75.04-168.27-167.71,24.78-14.37,53.58-22.6,84.29-22.6,92.74,0,167.97,75.03,168.27,167.71Z"/><path class="cls-14" d="M945.88,407.36c-24.78,14.37-53.58,22.6-84.29,22.6-92.75,0-167.97-75.04-168.27-167.71,24.78-14.37,53.58-22.6,84.29-22.6,92.74,0,167.97,75.03,168.27,167.71Z"/><text class="cls-33" transform="translate(722.36 756.29)"><tspan x="0" y="0">B Δ C</tspan></text><rect class="cls-35" x="1092.83" y="93.4" width="127.57" height="58.55" rx="10.8" ry="10.8"/><text class="cls-30" transform="translate(1140.69 135.08)"><tspan x="0" y="0">C</tspan></text><rect class="cls-34" x="353.39" y="93.4" width="127.57" height="58.55" rx="10.8" ry="10.8"/><text class="cls-32" transform="translate(401.25 135.08)"><tspan x="0" y="0">A</tspan></text><rect class="cls-35" x="433.09" y="578.56" width="127.57" height="58.55" rx="10.8" ry="10.8"/><text class="cls-30" transform="translate(480.95 620.24)"><tspan x="0" y="0">B</tspan></text><polyline class="cls-27" points="1092.83 122.68 1064.4 122.68 1029.88 177.33 1007.24 177.33"/><polyline class="cls-27" points="560.66 607.84 589.61 607.84 629.79 536.81 667.26 536.81"/><polyline class="cls-31" points="480.95 122.68 503.14 122.68 542.27 156.59 562.22 156.59"/><g><path class="cls-25" d="M2331.55,259.33c0,61.59-33.08,115.45-82.45,144.78"/><g><path class="cls-19" d="M2331.55,259.33c0,1.61-.02,3.21-.07,4.81"/><path class="cls-18" d="M2330.41,279.07c-5.72,48.97-32.47,91.52-70.97,118.38"/><path class="cls-19" d="M2253.2,401.6c-1.35,.86-2.72,1.7-4.1,2.52"/></g><path class="cls-8" d="M2331.55,259.33c0,61.59-33.08,115.45-82.45,144.78"/></g><g><path class="cls-25" d="M2331.55,259.73c-24.72-14.26-53.4-22.43-83.98-22.43s-59.5,8.23-84.29,22.6c0-.19,0-.38,0-.57,0-61.36,32.84-115.04,81.9-144.44"/><g><path class="cls-19" d="M2331.55,259.73c-1.39-.8-2.79-1.58-4.2-2.34"/><path class="cls-22" d="M2313.72,250.81c-20.31-8.69-42.67-13.5-66.15-13.5-26.29,0-51.19,6.03-73.36,16.79"/><path class="cls-19" d="M2167.47,257.55c-1.41,.76-2.81,1.55-4.19,2.35,0-.19,0-.38,0-.57,0-1.42,.02-2.83,.05-4.24"/><path class="cls-21" d="M2164.35,240.17c5.55-48.99,32.14-91.6,70.51-118.58"/><path class="cls-19" d="M2241.08,117.42c1.35-.86,2.71-1.71,4.09-2.53"/></g><path class="cls-2" d="M2331.55,259.73c-24.72-14.26-53.4-22.43-83.98-22.43s-59.5,8.23-84.29,22.6c0-.19,0-.38,0-.57,0-61.36,32.84-115.04,81.9-144.44"/></g><g><path class="cls-25" d="M2079.29,405.2c.14-62.06,33.88-116.24,83.99-145.29,.2,62.05,33.99,116.19,84.13,145.2"/><g><path class="cls-19" d="M2079.29,405.2c0-1.61,.03-3.21,.08-4.81"/><path class="cls-4" d="M2080.5,385.34c5.92-49.35,33.2-92.14,72.32-118.84"/><path class="cls-19" d="M2159.15,262.38c1.36-.84,2.74-1.67,4.13-2.47,0,1.61,.03,3.21,.08,4.81"/><path class="cls-12" d="M2164.51,279.76c5.97,49.34,33.29,92.09,72.44,118.76"/><path class="cls-19" d="M2243.29,402.64c1.36,.84,2.74,1.66,4.13,2.47"/></g><path class="cls-2" d="M2079.29,405.2c.14-62.06,33.88-116.24,83.99-145.29,.2,62.05,33.99,116.19,84.13,145.2"/></g><path class="cls-3" d="M2499.83,259.33c0,62.23-33.77,116.57-83.99,145.68,0-.63,0-1.25-.01-1.88-.01-.83-.03-1.65-.05-2.48-.02-.68-.04-1.36-.07-2.03-.04-.94-.09-1.88-.14-2.81-.02-.48-.05-.95-.09-1.43,0-.11-.01-.22-.02-.33-.04-.65-.09-1.3-.14-1.95,0-.02,0-.05,0-.07-.05-.62-.1-1.23-.16-1.84-.03-.34-.06-.67-.1-1.01-.09-.94-.19-1.89-.3-2.83-.03-.31-.07-.63-.11-.94-.06-.54-.13-1.08-.2-1.62-.11-.82-.22-1.64-.34-2.46-.09-.63-.18-1.25-.28-1.88,0-.04,0-.09-.02-.13-.21-1.33-.43-2.66-.67-3.98,0-.06-.02-.13-.03-.19-.24-1.33-.5-2.65-.77-3.96-.14-.68-.28-1.36-.44-2.04-.14-.68-.3-1.36-.46-2.03-.31-1.35-.64-2.7-1-4.04-.13-.52-.27-1.04-.41-1.56-.06-.22-.12-.44-.18-.65-.16-.59-.33-1.18-.5-1.76-.02-.09-.05-.17-.07-.26-.36-1.25-.74-2.49-1.13-3.73-.2-.65-.41-1.31-.63-1.96-.38-1.18-.78-2.36-1.2-3.53-.04-.13-.09-.25-.13-.38-.46-1.28-.93-2.56-1.42-3.84-.24-.64-.49-1.27-.75-1.91-.21-.53-.42-1.06-.63-1.58-.56-1.37-1.14-2.73-1.73-4.08-.27-.63-.55-1.25-.84-1.87-.24-.53-.48-1.05-.73-1.58-.04-.09-.09-.18-.13-.27-.28-.62-.58-1.23-.88-1.84-.26-.53-.51-1.05-.77-1.58-.04-.09-.08-.17-.13-.25-.28-.56-.56-1.12-.85-1.67-.09-.17-.17-.34-.26-.51-.25-.48-.5-.95-.75-1.43-.28-.54-.57-1.08-.87-1.62-.59-1.1-1.2-2.19-1.83-3.27-.15-.26-.3-.53-.45-.79-.76-1.3-1.53-2.59-2.33-3.87-.31-.51-.63-1.02-.95-1.53-.21-.33-.41-.65-.63-.98-.12-.2-.25-.39-.38-.59-.27-.43-.56-.86-.84-1.29-.11-.17-.22-.34-.34-.51-.34-.51-.68-1.02-1.03-1.53-.05-.07-.1-.13-.14-.21-.44-.64-.89-1.28-1.34-1.92-.07-.1-.14-.2-.21-.3-.38-.54-.77-1.09-1.17-1.63-.14-.21-.3-.42-.45-.63-.49-.66-.98-1.32-1.48-1.98-.44-.58-.88-1.16-1.33-1.74-.22-.29-.44-.57-.67-.86-.45-.58-.91-1.16-1.38-1.73-.52-.64-1.04-1.27-1.56-1.9-.09-.11-.18-.22-.27-.33-.51-.6-1.01-1.2-1.52-1.79-.02-.03-.05-.06-.08-.1-.58-.67-1.16-1.34-1.75-2-.51-.58-1.03-1.15-1.55-1.72-.23-.25-.47-.51-.7-.76-.35-.38-.71-.76-1.07-1.14-.16-.17-.33-.35-.49-.52-1.15-1.22-2.33-2.41-3.52-3.59-.08-.08-.17-.16-.25-.25-.46-.46-.93-.91-1.4-1.36-.23-.22-.46-.44-.69-.66-.66-.63-1.33-1.26-2.01-1.88-.55-.51-1.1-1.01-1.65-1.51-.59-.53-1.17-1.05-1.77-1.57-.84-.73-1.68-1.46-2.54-2.17-.57-.48-1.14-.96-1.72-1.42-.13-.11-.25-.21-.38-.32-.49-.4-.98-.79-1.48-1.19-.17-.13-.34-.27-.51-.41-.66-.52-1.33-1.03-2-1.54-.6-.46-1.2-.91-1.81-1.36-.27-.2-.54-.4-.81-.6-.46-.34-.91-.67-1.38-1-.17-.13-.35-.25-.51-.37-.63-.45-1.27-.9-1.92-1.35-.18-.12-.35-.24-.53-.36-.6-.41-1.19-.82-1.8-1.22-.04-.03-.09-.06-.13-.09-.68-.46-1.37-.91-2.06-1.35-.06-.04-.12-.08-.18-.12-.68-.44-1.37-.87-2.05-1.3-.06-.04-.12-.08-.19-.12-.76-.47-1.52-.94-2.29-1.4-.02-.01-.04-.02-.06-.04-.77-.46-1.53-.91-2.31-1.36,0-.13,0-.26,0-.39,0-62.28-33.84-116.67-84.14-145.76,.41-.24,.83-.48,1.25-.72,.75-.42,1.5-.84,2.26-1.26,.35-.19,.7-.38,1.05-.57,.49-.26,.98-.52,1.47-.78,.5-.26,1-.52,1.5-.78,1.29-.66,2.58-1.3,3.89-1.93,.51-.25,1.02-.49,1.54-.73,.05-.02,.1-.04,.14-.07,.53-.25,1.07-.5,1.61-.74,.69-.31,1.39-.62,2.08-.93,.6-.26,1.2-.52,1.8-.77,.03,0,.05-.02,.08-.03,.62-.26,1.24-.51,1.86-.77,.64-.26,1.28-.51,1.92-.77,.58-.23,1.15-.45,1.74-.67,.7-.26,1.4-.53,2.1-.78,.62-.23,1.23-.45,1.85-.67,.03,0,.06-.02,.09-.03,.55-.19,1.1-.38,1.65-.57,.84-.28,1.69-.57,2.54-.84,.55-.18,1.1-.36,1.66-.53,.02,0,.04-.01,.06-.02,.64-.2,1.3-.4,1.95-.59,.56-.17,1.12-.33,1.68-.49,.77-.22,1.54-.44,2.31-.64,.57-.15,1.14-.3,1.7-.45,.25-.06,.49-.13,.74-.19,.53-.13,1.06-.27,1.6-.4,.67-.16,1.35-.33,2.03-.48,.58-.13,1.15-.26,1.73-.39,.12-.03,.24-.05,.35-.08,.67-.14,1.34-.29,2.01-.42,.66-.14,1.33-.27,2-.4,1.48-.28,2.96-.55,4.45-.79,.51-.09,1.03-.17,1.54-.25,.64-.1,1.29-.2,1.93-.29,.4-.06,.79-.12,1.19-.16,1.22-.17,2.44-.32,3.67-.46,.64-.07,1.28-.14,1.92-.21,.06,0,.12-.01,.18-.02,.65-.07,1.3-.13,1.95-.18,.62-.06,1.25-.11,1.87-.15,.15-.01,.3-.03,.45-.04,.56-.04,1.13-.08,1.68-.12,.84-.06,1.67-.11,2.51-.14,.68-.04,1.37-.07,2.05-.09h.04c.55-.02,1.11-.04,1.66-.06,.29,0,.58-.01,.87-.02,.56-.01,1.13-.02,1.7-.03h.13c.71,0,1.41-.01,2.13-.01,92.94,0,168.28,75.34,168.28,168.28Z"/><path class="cls-3" d="M2415.85,405.58c0,92.94-75.35,168.28-168.28,168.28s-168.28-75.35-168.28-168.28v-.39c24.72,14.26,53.4,22.42,83.98,22.42s59.39-8.19,84.14-22.51c.01,0,.02,.01,.04,.02,.29,.17,.58,.33,.87,.5,.87,.5,1.75,.99,2.63,1.47,.34,.19,.68,.37,1.02,.55,.53,.28,1.06,.57,1.59,.84,1.7,.9,3.42,1.77,5.17,2.6,.59,.29,1.19,.57,1.78,.85,.02,0,.04,.02,.06,.02,.62,.29,1.24,.58,1.86,.85,1.24,.56,2.48,1.11,3.73,1.63,.18,.07,.36,.15,.53,.22,.46,.19,.91,.38,1.38,.57,1.27,.52,2.54,1.02,3.81,1.5,.6,.23,1.21,.46,1.82,.68,.06,.02,.12,.04,.18,.07,.55,.2,1.11,.4,1.66,.6,.06,.02,.13,.05,.2,.07,.64,.23,1.29,.45,1.94,.67,.65,.22,1.3,.44,1.96,.65,.67,.22,1.34,.43,2.02,.64,.64,.2,1.28,.39,1.93,.58,.66,.2,1.32,.39,1.99,.58,.67,.19,1.33,.38,2,.55,.63,.17,1.25,.34,1.88,.5,.16,.04,.31,.08,.47,.12,.56,.14,1.12,.28,1.67,.42,.67,.16,1.35,.32,2.03,.48,.42,.1,.84,.19,1.26,.28,.13,.03,.26,.06,.39,.09,.27,.06,.55,.12,.83,.18,.53,.11,1.06,.22,1.6,.33,.59,.12,1.18,.24,1.77,.35,.41,.08,.82,.16,1.23,.23,1.16,.22,2.33,.42,3.5,.61,.38,.06,.76,.13,1.14,.18,.28,.04,.56,.09,.84,.13,2.1,.32,4.21,.6,6.34,.84,.62,.07,1.24,.13,1.86,.2,.77,.08,1.54,.15,2.32,.22,.64,.06,1.28,.11,1.93,.16,.03,0,.07,0,.11,0,.64,.05,1.29,.1,1.93,.13,.42,.03,.85,.05,1.27,.07,.55,.03,1.1,.06,1.65,.09,.49,.02,.97,.05,1.46,.06,.6,.02,1.19,.04,1.79,.06,.23,0,.46,.01,.69,.02,.59,.01,1.19,.02,1.78,.03h.1c.71,0,1.42,.01,2.13,.01,30.71,0,59.5-8.23,84.29-22.6,0,.19,0,.38,0,.57Z"/><circle class="cls-14" cx="2163.28" cy="259.33" r="168.28"/><text class="cls-33" transform="translate(2088.26 756.29)"><tspan x="0" y="0">(B Δ C) -</tspan><tspan class="cls-37" x="220.86" y="0" xml:space="preserve"> A</tspan></text><rect class="cls-35" x="2561.44" y="90.94" width="127.57" height="58.55" rx="10.8" ry="10.8"/><text class="cls-30" transform="translate(2609.3 132.62)"><tspan x="0" y="0">C</tspan></text><rect class="cls-35" x="1821.99" y="90.94" width="127.57" height="58.55" rx="10.8" ry="10.8"/><rect class="cls-35" x="1901.7" y="576.09" width="127.57" height="58.55" rx="10.8" ry="10.8"/><text class="cls-30" transform="translate(1949.56 617.78)"><tspan x="0" y="0">B</tspan></text><polyline class="cls-27" points="2561.44 120.21 2533 120.21 2498.49 174.86 2475.85 174.86"/><polyline class="cls-27" points="2029.26 605.37 2058.22 605.37 2098.39 534.34 2135.86 534.34"/><polyline class="cls-26" points="1949.56 120.21 1971.74 120.21 2010.87 154.12 2030.83 154.12"/><text class="cls-32" transform="translate(1869.05 132.62)"><tspan x="0" y="0">A</tspan></text><line class="cls-16" x1="1521.2" y1="41.16" x2="1521.2" y2="820.63"/></g></g></svg>