<?xml version="1.0" encoding="UTF-8"?><svg id="Capa_2" xmlns="http://www.w3.org/2000/svg" viewBox="0 0 3838.25 1561.45"><defs><style>.cls-1{letter-spacing:-.05em;}.cls-1,.cls-2,.cls-3,.cls-4{fill:#fff;}.cls-1,.cls-3{font-family:Helvetica, Helvetica;font-size:66.45px;}.cls-5,.cls-6,.cls-7,.cls-8{font-family:FiraCode-Medium, 'Fira Code';font-size:72px;font-variation-settings:'wght' 500;font-weight:500;}.cls-5,.cls-9{fill:#695ae5;}.cls-6{fill:#08a045;}.cls-10{fill:rgba(31,132,199,.15);stroke:#1f84c7;}.cls-10,.cls-11,.cls-12{stroke-width:7.62px;}.cls-10,.cls-11,.cls-12,.cls-4{stroke-miterlimit:10;}.cls-11{fill:rgba(8,160,69,.16);stroke:#08a045;}.cls-7{fill:#ff8700;}.cls-2{stroke-linejoin:round;stroke-width:6.99px;}.cls-2,.cls-4{stroke:#695ae5;}.cls-8{fill:#1f84c7;}.cls-12{fill:rgba(255,135,0,.15);stroke:#ff8700;}.cls-4{stroke-width:10.11px;}</style></defs><g id="Capa_2-2"><g><rect class="cls-4" x="5.06" y="191.52" width="3828.14" height="1364.87" rx="43.65" ry="43.65"/><rect class="cls-9" x="5.06" y="0" width="3828.14" height="102.39" rx="41.1" ry="41.1"/><text class="cls-3" transform="translate(1899.82 72.88)"><tspan x="0" y="0">U</tspan></text><rect class="cls-9" x="2536.73" y="360.24" width="223.06" height="102.39" rx="18.89" ry="18.89"/><text class="cls-3" transform="translate(2625.11 433.12)"><tspan x="0" y="0">B</tspan></text><rect class="cls-9" x="1078.47" y="432.31" width="223.06" height="102.39" rx="18.89" ry="18.89"/><rect class="cls-9" x="1226.83" y="1284.69" width="223.06" height="102.39" rx="18.89" ry="18.89"/><text class="cls-3" transform="translate(1315.21 1357.57)"><tspan x="0" y="0">C</tspan></text><polyline class="cls-2" points="2536.73 411.43 2487.01 411.43 2426.65 506.99 2387.07 506.99"/><polyline class="cls-2" points="1449.89 1335.88 1500.52 1335.88 1570.77 1211.68 1636.29 1211.68"/><polyline class="cls-2" points="1301.52 483.5 1340.31 483.5 1408.73 542.8 1443.63 542.8"/><text class="cls-1" transform="translate(1165.44 505.19)"><tspan x="0" y="0">A</tspan></text><circle class="cls-12" cx="2098.58" cy="707.85" r="347.61"/><circle class="cls-11" cx="1925.09" cy="1009.96" r="347.61"/><circle class="cls-10" cx="1750.97" cy="707.85" r="347.61"/><text class="cls-8" transform="translate(1562.39 641.06)"><tspan x="0" y="0">15</tspan></text><text class="cls-5" transform="translate(1886.56 587.04)"><tspan x="0" y="0">11</tspan></text><text class="cls-5" transform="translate(2581.88 1324.22)"><tspan x="0" y="0">19</tspan></text><text class="cls-7" transform="translate(2208.73 641.06)"><tspan x="0" y="0">16</tspan></text><text class="cls-5" transform="translate(2134.3 940.38)"><tspan x="0" y="0">7</tspan></text><text class="cls-5" transform="translate(1908.16 835.88)"><tspan x="0" y="0">6</tspan></text><text class="cls-5" transform="translate(1660.35 940.39)"><tspan x="0" y="0">21</tspan></text><text class="cls-6" transform="translate(1908.16 1225.25)"><tspan x="0" y="0">9</tspan></text></g></g></svg>